<mxfile host="app.diagrams.net" agent="Mozilla/5.0 (Windows NT 10.0; Win64; x64) AppleWebKit/537.36 (KHTML, like Gecko) Chrome/132.0.0.0 Safari/537.36" version="26.0.11">
  <diagram name="Page-1" id="zYGos_rC25UUnKq3Qi-x">
    <mxGraphModel dx="2585" dy="2285" grid="1" gridSize="10" guides="1" tooltips="1" connect="1" arrows="1" fold="1" page="1" pageScale="1" pageWidth="850" pageHeight="1100" math="0" shadow="0">
      <root>
        <mxCell id="0" />
        <mxCell id="1" parent="0" />
        <mxCell id="0T6q6VEXOdXNynGkeX3k-1" value="" style="shape=image;verticalLabelPosition=bottom;labelBackgroundColor=default;verticalAlign=top;aspect=fixed;imageAspect=0;image=data:image/jpeg,/9j/4AAQSkZJRgABAQEAYABgAAD/2wBDAAMCAgMCAgMDAwMEAwMEBQgFBQQEBQoHBwYIDAoMDAsKCwsNDhIQDQ4RDgsLEBYQERMUFRUVDA8XGBYUGBIUFRT/2wBDAQMEBAUEBQkFBQkUDQsNFBQUFBQUFBQUFBQUFBQUFBQUFBQUFBQUFBQUFBQUFBQUFBQUFBQUFBQUFBQUFBQUFBT/wAARCALQBQADASIAAhEBAxEB/8QAHwAAAQUBAQEBAQEAAAAAAAAAAAECAwQFBgcICQoL/8QAtRAAAgEDAwIEAwUFBAQAAAF9AQIDAAQRBRIhMUEGE1FhByJxFDKBkaEII0KxwRVS0fAkM2JyggkKFhcYGRolJicoKSo0NTY3ODk6Q0RFRkdISUpTVFVWV1hZWmNkZWZnaGlqc3R1dnd4eXqDhIWGh4iJipKTlJWWl5iZmqKjpKWmp6ipqrKztLW2t7i5usLDxMXGx8jJytLT1NXW19jZ2uHi4+Tl5ufo6erx8vP09fb3+Pn6/8QAHwEAAwEBAQEBAQEBAQAAAAAAAAECAwQFBgcICQoL/8QAtREAAgECBAQDBAcFBAQAAQJ3AAECAxEEBSExBhJBUQdhcRMiMoEIFEKRobHBCSMzUvAVYnLRChYkNOEl8RcYGRomJygpKjU2Nzg5OkNERUZHSElKU1RVVldYWVpjZGVmZ2hpanN0dXZ3eHl6goOEhYaHiImKkpOUlZaXmJmaoqOkpaanqKmqsrO0tba3uLm6wsPExcbHyMnK0tPU1dbX2Nna4uPk5ebn6Onq8vP09fb3+Pn6/9oADAMBAAIRAxEAPwD9U6KKKACiiigAooooAKKKKACiiigAooooAKKKKACiiigAooooAKKKKACiiigAooooAKKKKACiiigAooooAKKKKACiiigAooooAKKKKACiiigAooooAKKKKACiiigAooooAKKKKACiiigAooooAKKKKACiiigAooooAKKKKACiiigAooooAKKKKACiiigAooooAKKKKACiiigAooooAKKKKACiiigAooooAKKKKACiiigAooooAKKKKACiiigAooooAKKKKACiiigAooooAKKKKACiiigAooooAKKKKACiiigAooooAKKKKACiiigAooooAKKKKACiiigAooooAKKKKACiiigAooooAKKKKACiiigAooooAKKKKACiiigAooooAKKKKACiiigAooooAKKKKACiiigAooooAKKKKACiiigAooooAKKKKACiiigAooooAKKKKACiiigAooooAKKKKACiiigAooooAKKKKACivlr9or41fHaTxpqXgP4FfDQahqOm2aXV/wCKvEuINPHmKSkVpvdBNIcEFslVIIK4+Yed/wDBOn9u7xX+0t4j8VeA/iJpdlY+MNDtzex3FjC0HnQrIsUySxEna6SOnIIB342jbkgH3TRXi37YH7Q9r+zD8BfEPjZhDNqyKLPSLSfJW4vpMiJSAQSq4aRgCDtjbBzXlf8AwT2+OPxt/aM8J6n43+JFloemeE5/9H0RNPspIJ7uRWxJNlpGHlDGwerbv7vIB9e0UUUAFFFFABRRRQAUUUUAFFFFABRRRQAUUUUAFFFFABRRRQAUUUUAFFFFABRRRQAUUUUAFFFFABRRRQAUUUUAFFFFABRRRQAUUUUAFFFFABRRRQAUUUUAFFFFABRRRQAUUUUAFFFFABRRRQAUUUUAFFFFABRRRQAUUUUAFFFFABRRRQAUUUUAFFFFABRRRQAUUUUAFFFFABRRRQAUUUUAFFFFABRRRQAUUUUAFFFFABRRRQAUUUUAFFFFABRRRQAUUUUAFFFFABRRRQAUUUUAFFFFABRRRQAUUUUAFFFFABRRRQAUUUUAFFFFABRRRQAUUUUAFFFFABRRRQAUUUUAFFFFABRRRQAUUUUAFFFFABRRRQAUUUUAFFFFABRRRQAUUUUAFFFFABRRRQAUUUUAFFFFABRRRQAV+UH7D2knRv8Agqx8cLS2UQ28Z19vLGMCNtRhZQPb5l/Kv1fr8PZvjdqfwd/be/aSvfC1pcXnj3xDcan4W8NW9uhdxfXGpQqJR2DKkbsuerbR0JwAfQ37QFhe/wDBRj9tKy+FejXMsfwr+GzM/iHUrdjtluC22ZUPTeSnkJnONkzjIyK/Szw/4f03wnoOn6Lo9lDpuk6fbpa2lnbrtjhiRQqIo7AAAV4x+xl+zJY/ss/BfT/DmY7vxLen7fr2pL8xubxwNwDHkog+RfUAtjLGvd6ACiiigAooooAKKKKACiiigAooooAKKKKACiiigAooooAKKKKACiiigAooooAKKKKACiiigAooooAKKKKACiiigAooooAKKKKACiiigAooooAKKKKACiiigAooooAKKKKACiiigAooooAKKKKACiiigAooooAKKKKACiiigAooooAKKKKACiiigAooooAKKKKACiiigAooooAKKKKACiiigAooooAKKKKACiiigAooooAKKKKACiiigAooooAKKKKACiiigAooooAKKKKACiiigAooooA5n4jfEnwz8I/Buo+KvF+sW+h6Bp6b57y4JwMnAVQASzE4AVQSScAV8teFf2//ABZ8YGur/wCEf7Pnivxz4WhneFddvNRt9Lin2D5jEJAwc5/h3Z9QD8tfMn7XXiLUf22/2/vCvwEsryaHwR4bvfJvxA5AkkSPzr2Y9tyophTPRg2PvkV+qnhzw7pnhDQNO0PRbGHTdI063S1tLO3XbHDEihVVR6AAUAfEuof8FZPCFvqmleFoPh74oi+JFzrUeiXXhbUxHam0laRYyWm+YN8zAABQSQc7Rgn7sr8gNB8NWXxo/wCCzmrTWiLLpmh6y1/csoyFlsLREz9ftMaD6mv1/oAKKKKACiiigAooooAKKKKACiiigAooooAKKKKACiiigAooooAKKKKACiiigAooooAKKKKACiiigAooooAKKKKACiiigAooooAKKKKACiiigAooooAKKKKACiiigCnrOsWXh7R77VdSuY7LTrGCS6ubmY4SKJFLO7HsAoJP0r8w/wDgmf8AD3Qvjv8AtNfGj4/3dlK8MOv3Unh+K6APkveSzSu5/wCmkcLRoPTzW9BX2V+3X4L+IHxI/Zj8W+FPhppi6r4k1kQ2bW5u4rZjbNKpn2vKypkoCpDMPlZsZOAeY/4Jv/s9+If2cP2boNA8XaWuj+KdQ1W61K/sxPFOYySsUYMkTMhzHDG3DHG7nByKAPqWiiigAooooAKKKKACiiigAooooAKKKKACiiigAooooAKKKKACiiigAooooAKKKKACiiigAooooAKKKKACiiigAooooAKKKKACiiigAooooAKKKKACiiigAooooAKKKKACiiigAooooAKKKKACiiigAooooAKKKKACiiigAooooAKKKKACiiigAooooAKKKKACiiigAooooAKKKKACiiigAooooAKKKKACiiigAooooAKKKKACiiigAooooAKKKKACiiigAooooAKKKKACiiigAooooAKKKKAPx/8A+CYLDxF/wUI+K+q6l/yEf7P1i7CuMsJX1K3DnJ74dh6/N9a/TD9o7442PwB+GF/4ilgbUtamYWOh6NCpebU9Qk+WC3jQctluTjkKGPaviP4pf8E/fjJ8Lf2oL/4u/s8a5o9quqXE11LYalIIzbPOSZ4mVlZJIWYlhyCuQAPlDH6D+Ff7KPjLXdan8d/HjxnD4z+IH2Cew0i30uHytN8OpNGUle2TC75mBwZSoOBjnrQB8k/8EX/DN14u+JXxc+JurSNc6k0MNibl+ssl1M9xcN9cwxn/AIFX6uq6yKGVgy+oORX5c/s5/sK/tVfA288TeDPD/jvw/wCDvBWu3A+3+ILMi5uzGgZA9tGybo5GRu5XGAdwIBr9Ffg78KNE+CHw30TwV4eN0+l6XEUSW9naaaV2YvJI7H+JnZmIGAC3AA4oA7OiiigAooooAKKKKACiiigAooooAKKKKACiiigAooooAKKKKACiiigAooooAKKKKACiiigAooooAKKKKACiiigAooooAKKKKACiiigAooooAKKKKACiiigAooooAKKKKACiiigAooooAKKKKACiiigAooooAKKKKACiiigAooooAKKKKACiiigAooooAKKKKACiiigAooooAKKKKACiiigAooooAKKKKACiiigAooooAKKKKACiiigAooooAKKKKACiiigAooooAKKKKACiiigAooooAKKKKACiiigAooooAKKKKACiiigAooooAKKKKACiiigAooooAKKKKACiiigAooooAKKKKACiiigAooooAKKKKACiiigAooooAKKKKACiiigAooooAKKKKACiiigAooooAKKKKACiiigAooooAKKKKACiiigAooooAKKKKACiiigAooooAKKKKACiiigAooooAKKKKACiiigAooooAKKKKACiiigAooooAKKKKACiiigAooooAKKKKACkZgilmIVQMknoKWvzX/4K5/tgXXgXQoPg14TvnttY1q2Fzr91bvhobJshLYEdGlwS3Q7AByJKAPpTVP8Ago5+zro/jJvDNx8S7E3yS+Q9xDa3Elmr5xg3KxmLH+0G2juRX0XpupWmsafbX9hdQ31jcxrNBc20gkjlRhlXVgSGUgggjg5r8bPCH/BIXxV4g/Zmn8bXesTWnxFubIanp3hTyAE8rbvEErH5hO69BgBWIVu5Xvf+CPn7VV7ba1d/AvxNdSPbSJLe+HGuG5gkTL3FoAecEbpVHYpL/eFAH6v0UUUAFFFc58RviBo3wr8B694v8Q3H2XRdFs5L26kAy2xBnao7sxwqjuSB3oA5340/tDfDv9nnQ7fVfiD4otfD1tcsUto5FeWe4YYyI4o1Z3xkZIXAyMkZrM+B37VPws/aOjuf+Ff+LrXW7q1XfcWDxyW91EucbjDKquVyQNwBXJAzX46+C/B/xB/4KoftVavqWo38mkaNEvnXN0ymaHRtPDEQ20S8BnOSAONzeY56NSftJfAXxf8A8E1f2h/CnibwdrVzeaW5+26Jq8yhWl2YW4tLgLgHhsMBwySjocgAH7x0VwvwN+Lmk/Hj4S+GPHmifJYa3ZrceSWDNbyglZYWI6skiuh91ruqACiiigBGYIpZiFUDJJ6CvmzVP+Cjn7Ouj+Mm8M3HxLsTfJL5D3ENrcSWavnGDcrGYsf7QbaO5FfNf/BXP9sC68C6FB8GvCd89trGtWwudfurd8NDZNkJbAjo0uCW6HYAORJXhfhD/gkL4q8QfszT+NrvWJrT4i3NkNT07wp5ACeVt3iCVj8wndegwArEK3cqAfsnpupWmsafbX9hdQ31jcxrNBc20gkjlRhlXVgSGUgggjg5qzX5Qf8ABHz9qq9ttau/gX4mupHtpElvfDjXDcwSJl7i0APOCN0qjsUl/vCv1foAKKKKACvOvjT+0N8O/wBnnQ7fVfiD4otfD1tcsUto5FeWe4YYyI4o1Z3xkZIXAyMkZroviN8QNG+FfgPXvF/iG4+y6LotnJe3UgGW2IM7VHdmOFUdyQO9fiB4L8H/ABB/4KoftVavqWo38mkaNEvnXN0ymaHRtPDEQ20S8BnOSAONzeY56NQB+xXwO/ap+Fn7R0dz/wAK/wDF1rrd1arvuLB45Le6iXONxhlVXK5IG4ArkgZr1ivwc/aS+Avi/wD4Jq/tD+FPE3g7Wrm80tz9t0TV5lCtLswtxaXAXAPDYYDhklHQ5A/an4G/FzSfjx8JfDHjzRPksNbs1uPJLBmt5QSssLEdWSRXQ+60Ad1RRRQAUjMEUsxCqBkk9BS1+a//AAVz/bAuvAuhQfBrwnfPbaxrVsLnX7q3fDQ2TZCWwI6NLgluh2ADkSUAfSmqf8FHP2ddH8ZN4ZuPiXYm+SXyHuIbW4ks1fOMG5WMxY/2g20dyK+i9N1K01jT7a/sLqG+sbmNZoLm2kEkcqMMq6sCQykEEEcHNfjZ4Q/4JC+KvEH7M0/ja71ia0+ItzZDU9O8KeQAnlbd4glY/MJ3XoMAKxCt3K97/wAEfP2qr221q7+Bfia6ke2kSW98ONcNzBImXuLQA84I3SqOxSX+8KAP1fooooAKKK5z4jfEDRvhX4D17xf4huPsui6LZyXt1IBltiDO1R3ZjhVHckDvQBzvxp/aG+Hf7POh2+q/EHxRa+Hra5YpbRyK8s9wwxkRxRqzvjIyQuBkZIzWZ8Dv2qfhZ+0dHc/8K/8AF1rrd1arvuLB45Le6iXONxhlVXK5IG4ArkgZr8dfBfg/4g/8FUP2qtX1LUb+TSNGiXzrm6ZTNDo2nhiIbaJeAznJAHG5vMc9GpP2kvgL4v8A+Cav7Q/hTxN4O1q5vNLc/bdE1eZQrS7MLcWlwFwDw2GA4ZJR0OQAD946K4X4G/FzSfjx8JfDHjzRPksNbs1uPJLBmt5QSssLEdWSRXQ+613VABRRRQAjMEUsxCqBkk9BXzZqn/BRz9nXR/GTeGbj4l2Jvkl8h7iG1uJLNXzjBuVjMWP9oNtHcivmv/grn+2BdeBdCg+DXhO+e21jWrYXOv3Vu+GhsmyEtgR0aXBLdDsAHIkrwvwh/wAEhfFXiD9mafxtd6xNafEW5shqeneFPIATytu8QSsfmE7r0GAFYhW7lQD9k9N1K01jT7a/sLqG+sbmNZoLm2kEkcqMMq6sCQykEEEcHNWa/KD/AII+ftVXttrV38C/E11I9tIkt74ca4bmCRMvcWgB5wRulUdikv8AeFfq/QAUUUUAFedfGn9ob4d/s86Hb6r8QfFFr4etrliltHIryz3DDGRHFGrO+MjJC4GRkjNdF8RviBo3wr8B694v8Q3H2XRdFs5L26kAy2xBnao7sxwqjuSB3r8QPBfg/wCIP/BVD9qrV9S1G/k0jRol865umUzQ6Np4YiG2iXgM5yQBxubzHPRqAP2K+B37VPws/aOjuf8AhX/i611u6tV33Fg8clvdRLnG4wyqrlckDcAVyQM16xX4OftJfAXxf/wTV/aH8KeJvB2tXN5pbn7bomrzKFaXZhbi0uAuAeGwwHDJKOhyB+1PwN+Lmk/Hj4S+GPHmifJYa3ZrceSWDNbyglZYWI6skiuh91oA7qiiigApGYIpZiFUDJJ6Clr81/8Agrn+2BdeBdCg+DXhO+e21jWrYXOv3Vu+GhsmyEtgR0aXBLdDsAHIkoA+lNU/4KOfs66P4ybwzcfEuxN8kvkPcQ2txJZq+cYNysZix/tBto7kV9F6bqVprGn21/YXUN9Y3MazQXNtIJI5UYZV1YEhlIIII4Oa/Gzwh/wSF8VeIP2Zp/G13rE1p8RbmyGp6d4U8gBPK27xBKx+YTuvQYAViFbuV73/AII+ftVXttrV38C/E11I9tIkt74ca4bmCRMvcWgB5wRulUdikv8AeFAH6v0UUUAFFFc58RviBo3wr8B694v8Q3H2XRdFs5L26kAy2xBnao7sxwqjuSB3oA5340/tDfDv9nnQ7fVfiD4otfD1tcsUto5FeWe4YYyI4o1Z3xkZIXAyMkZrM+B37VPws/aOjuf+Ff8Ai611u6tV33Fg8clvdRLnG4wyqrlckDcAVyQM1+Ovgvwf8Qf+CqH7VWr6lqN/JpGjRL51zdMpmh0bTwxENtEvAZzkgDjc3mOejUn7SXwF8X/8E1f2h/CnibwdrVzeaW5+26Jq8yhWl2YW4tLgLgHhsMBwySjocgAH7x0VwvwN+Lmk/Hj4S+GPHmifJYa3ZrceSWDNbyglZYWI6skiuh91ruqACiiigAooooAKKKKACiiigAooooAKKKKACiiigAooooAKKKKACiiigAooooAKKKKACiiigAooooAKKKKACiioL68h06zuLu4fy7eCNpZHwTtVRknA5PA7UAT0VgeCfH3hr4laDDrfhTXtO8RaTMPkvNMuUnjzjOCVJww7qeR3Fb9ABRRRQAUUUUAFFFFABRRRQAUUUUAFFFFABRRRQAUUUUAFFFFABRRRQAUUUUAFFFFABRRRQAUUUUAFFFFABRRRQAUUUUAFFFFABRRRQAUUUUAFFFFABRRRQAUUUUAFFFFABRRRQAUUUUAFFFFABRRRQAUUUUAFFFFABRRRQBk+LfFGneB/CuseItYnFrpOk2c19dzn/lnDEhd2/BVNfiX+yH4Nv/27f28tR8a+K7drnR7e8k8TanDJ80YjjdVtLTJ4Kg+Sm09Y4nr9Fv8Agp4vjrU/2V9W8P8AgLw1q3iS+1u8gtb9dHt2nlt7JSZZH2pliGaNEIAPyu2eK43/AIJG/Am5+FX7PN/4m1jT5bDX/F2oPM8VxEY5o7W3LRQo6kZB3+e/PaQUAfc1fhr+3l4F1H9j39ua08eeF4vstlqN5D4s0wLlYxN5ubmA47GRXJUcBJlFfuVXwl/wWC+DP/CwP2a7fxhaQeZqngu/W6ZlGW+xzlYp1H/A/Ic+gjNAH2l4H8Yad8QfBmheJ9Il87StZsYdQtZO5ilQOuffDDNbdfDH/BIL4w/8LA/Zjk8K3U/m6n4Nv3sgrHLfZJiZoGPtuMyD2iFfc9ABX5lf8FpPj22jeEfC/wAI9NudlxrDjWdXRG5+zRsVt42HcPKHf6wL61+mtfhbeKf29P8Agpc0Q/07wxda7s67o/7IsRyR2USxwk/703fNAH6Tf8E1/wBnqL4Cfsy6HJd2vk+JvFKrreqM64dfMUGCE9wEiK5U9HaT1rQ/4KL/AAFX49/sueJrS1t/O8QaAh13Siq5cyQqxkjHc74jIoH94oe1fTaqFUADAHAAoIDAgjIoA/Lf/gil8b2udP8AGnwnv7jc1sRr+lIxz8jFYrlB6AN5DADu7mv1Jr8LLWM/sI/8FMli/wCPDw1a69sHaMaTfDj2YRxzD/gUPbFfunQAVk+LfFGneB/CuseItYnFrpOk2c19dzn/AJZwxIXdvwVTWtXwz/wV8+Mn/CvP2ZE8KWk/lap40vkstqthvskJEs7D2yIYyPSU0AfDf7Ifg2//AG7f28tR8a+K7drnR7e8k8TanDJ80YjjdVtLTJ4Kg+Sm09Y4nr9yq+Ev+CP3wX/4V7+zbc+MbyDy9U8aXzXSsww32OAtFAp+r+e49RItfdtAH4a/t5eBdR/Y9/bmtPHnheL7LZajeQ+LNMC5WMTebm5gOOxkVyVHASZRX7X+B/GGnfEHwZoXifSJfO0rWbGHULWTuYpUDrn3wwzXxb/wWC+DP/CwP2a7fxhaQeZqngu/W6ZlGW+xzlYp1H/A/Ic+gjNTf8EgvjD/AMLA/Zjk8K3U/m6n4Nv3sgrHLfZJiZoGPtuMyD2iFAH3PRRRQB+ZX/BaT49to3hHwv8ACPTbnZcaw41nV0Rufs0bFbeNh3Dyh3+sC+tfRP8AwTX/AGeovgJ+zLocl3a+T4m8Uqut6ozrh18xQYIT3ASIrlT0dpPWvzZvFP7en/BS5oh/p3hi613Z13R/2RYjkjsoljhJ/wB6bvmv3RVQqgAYA4AFAHzJ/wAFF/gKvx7/AGXPE1pa2/neINAQ67pRVcuZIVYyRjud8RkUD+8UPavlL/gil8b2udP8afCe/uNzWxGv6UjHPyMViuUHoA3kMAO7ua/UggMCCMivwttYz+wj/wAFMli/48PDVrr2wdoxpN8OPZhHHMP+BQ9sUAfunRRRQBk+LfFGneB/CuseItYnFrpOk2c19dzn/lnDEhd2/BVNfiX+yH4Nv/27f28tR8a+K7drnR7e8k8TanDJ80YjjdVtLTJ4Kg+Sm09Y4nr7k/4K+fGT/hXn7MieFLSfytU8aXyWW1Ww32SEiWdh7ZEMZHpKag/4I/fBf/hXv7Ntz4xvIPL1TxpfNdKzDDfY4C0UCn6v57j1Ei0Afdtfhr+3l4F1H9j39ua08eeF4vstlqN5D4s0wLlYxN5ubmA47GRXJUcBJlFfuVXwl/wWC+DP/CwP2a7fxhaQeZqngu/W6ZlGW+xzlYp1H/A/Ic+gjNAH2l4H8Yad8QfBmheJ9Il87StZsYdQtZO5ilQOuffDDNbdfDH/AASC+MP/AAsD9mOTwrdT+bqfg2/eyCsct9kmJmgY+24zIPaIV9z0AFfmV/wWk+PbaN4R8L/CPTbnZcaw41nV0Rufs0bFbeNh3Dyh3+sC+tfprX4W3in9vT/gpc0Q/wBO8MXWu7Ou6P8AsixHJHZRLHCT/vTd80AfpN/wTX/Z6i+An7MuhyXdr5PibxSq63qjOuHXzFBghPcBIiuVPR2k9a0P+Ci/wFX49/sueJrS1t/O8QaAh13Siq5cyQqxkjHc74jIoH94oe1fTaqFUADAHAAoIDAgjIoA/Lf/AIIpfG9rnT/Gnwnv7jc1sRr+lIxz8jFYrlB6AN5DADu7mv1Jr8LLWM/sI/8ABTJYv+PDw1a69sHaMaTfDj2YRxzD/gUPbFfunQAVk+LfFGneB/CuseItYnFrpOk2c19dzn/lnDEhd2/BVNa1fDP/AAV8+Mn/AArz9mRPClpP5WqeNL5LLarYb7JCRLOw9siGMj0lNAHw3+yH4Nv/ANu39vLUfGviu3a50e3vJPE2pwyfNGI43VbS0yeCoPkptPWOJ6/cqvhL/gj98F/+Fe/s23PjG8g8vVPGl810rMMN9jgLRQKfq/nuPUSLX3bQB+Gv7eXgXUf2Pf25rTx54Xi+y2Wo3kPizTAuVjE3m5uYDjsZFclRwEmUV+1/gfxhp3xB8GaF4n0iXztK1mxh1C1k7mKVA6598MM18W/8Fgvgz/wsD9mu38YWkHmap4Lv1umZRlvsc5WKdR/wPyHPoIzU3/BIL4w/8LA/Zjk8K3U/m6n4Nv3sgrHLfZJiZoGPtuMyD2iFAH3PRRRQB+ZX/BaT49to3hHwv8I9NudlxrDjWdXRG5+zRsVt42HcPKHf6wL619E/8E1/2eovgJ+zLocl3a+T4m8Uqut6ozrh18xQYIT3ASIrlT0dpPWvzZvFP7en/BS5oh/p3hi613Z13R/2RYjkjsoljhJ/3pu+a/dFVCqABgDgAUAfMn/BRf4Cr8e/2XPE1pa2/neINAQ67pRVcuZIVYyRjud8RkUD+8UPavlL/gil8b2udP8AGnwnv7jc1sRr+lIxz8jFYrlB6AN5DADu7mv1IIDAgjIr8LbWM/sI/wDBTJYv+PDw1a69sHaMaTfDj2YRxzD/AIFD2xQB+6dFFFAGT4t8Uad4H8K6x4i1icWuk6TZzX13Of8AlnDEhd2/BVNfiX+yH4Nv/wBu39vLUfGviu3a50e3vJPE2pwyfNGI43VbS0yeCoPkptPWOJ6+5P8Agr58ZP8AhXn7MieFLSfytU8aXyWW1Ww32SEiWdh7ZEMZHpKag/4I/fBf/hXv7Ntz4xvIPL1TxpfNdKzDDfY4C0UCn6v57j1Ei0Afdtfhr+3l4F1H9j39ua08eeF4vstlqN5D4s0wLlYxN5ubmA47GRXJUcBJlFfuVXwl/wAFgvgz/wALA/Zrt/GFpB5mqeC79bpmUZb7HOVinUf8D8hz6CM0AfaXgfxhp3xB8GaF4n0iXztK1mxh1C1k7mKVA6598MM1t18Mf8EgvjD/AMLA/Zjk8K3U/m6n4Nv3sgrHLfZJiZoGPtuMyD2iFfc9ABX5lf8ABaT49to3hHwv8I9NudlxrDjWdXRG5+zRsVt42HcPKHf6wL61+mtfhbeKf29P+ClzRD/TvDF1ruzruj/sixHJHZRLHCT/AL03fNAH6Tf8E1/2eovgJ+zLocl3a+T4m8Uqut6ozrh18xQYIT3ASIrlT0dpPWtD/gov8BV+Pf7Lnia0tbfzvEGgIdd0oquXMkKsZIx3O+IyKB/eKHtX02qhVAAwBwAKCAwIIyKAPy3/AOCKXxva50/xp8J7+43NbEa/pSMc/IxWK5QegDeQwA7u5r9Sa/Cy1jP7CP8AwUyWL/jw8NWuvbB2jGk3w49mEccw/wCBQ9sV+6dABRRXl3x+/aM8Gfs6+EbrVvFOr2dpfPYXt5pel3NwIJNUktovMaCJmGN7Eoo93UAEnFAHqNFfmYv/AAXA8KbRu+FushscgapER/6BS/8AD8Dwn/0S7Wv/AAZw/wDxFAH6ZUV+Zv8Aw/A8J/8ARLta/wDBnD/8RX6F/C/xxF8Tvhp4S8Y29q9jB4h0i01aO1kYM0KzwpKEJHBID4z7UAdPRRRQAUV8f/tgf8FGND/ZD+JemeDtT8Gah4invtIi1Zbq0vEhVVeaaLYQyk5BgJz/ALQrw3/h+B4T/wCiXa1/4M4f/iKAP0yor8zf+H4HhP8A6JdrX/gzh/8AiK9y/Y//AOCjGh/tefEvU/B2meDNQ8Oz2OkS6s11d3iTKypNDFsAVQckzg5/2TQB9gUUUUAFFcx8UPHEXwx+Gni3xjcWr30Hh7SLvVpLWNgrTLBC8pQE8AkJjPvX56f8PwPCf/RLta/8GcP/AMRQB+mVFfmb/wAPwPCf/RLta/8ABnD/APEUf8PwPCf/AES7Wv8AwZw//EUAfplRXMfC/wAcRfE74aeEvGNvavYweIdItNWjtZGDNCs8KShCRwSA+M+1dPQAUUV8f/tgf8FGND/ZD+JemeDtT8Gah4invtIi1Zbq0vEhVVeaaLYQyk5BgJz/ALQoA+wKK/M3/h+B4T/6JdrX/gzh/wDiKP8Ah+B4T/6JdrX/AIM4f/iKAP0yor4//Y//AOCjGh/tefEvU/B2meDNQ8Oz2OkS6s11d3iTKypNDFsAVQckzg5/2TX2BQAUUVzHxQ8cRfDH4aeLfGNxavfQeHtIu9WktY2CtMsELylATwCQmM+9AHT0V+Zv/D8Dwn/0S7Wv/BnD/wDEUf8AD8Dwn/0S7Wv/AAZw/wDxFAH6ZVi+Nv8AkTde/wCvC4/9FtX5z/8AD8Dwn/0S7Wv/AAZw/wDxFfeWi+OIvid8AbDxjb2r2MHiHwzHq0drIwZoVntRKEJHBID4z7UAfzhfDf4reMfhBry614L8S6l4a1MYBn0+4aPzAP4XUfK68/dYEe1foR8Af+C0PiHR2t9N+LvhqPxBaDCtrmgotvdgcfM8BIjkPX7hjHsa/MyigD+lH4I/tT/C39oixWbwL4vsdVu9m+TS5GMF9D67oHw+Bz8wBXjgmvV6/lf0/UbvSL6C9sbqayvIHEkVxbyGOSNh0ZWByD7ivs/4Bf8ABWP4xfCP7PYeKJoviXoMeAYtZkKXyrxwt2AWJ95Vk60AfujRX5lQ/wDBcHws0amX4V6wkmPmVNViYA+x8sZ/Kvdf2P8A/goxof7XnxL1PwdpngzUPDs9jpEurNdXd4kysqTQxbAFUHJM4Of9k0AfYFFFFABRXMfFDxxF8Mfhp4t8Y3Fq99B4e0i71aS1jYK0ywQvKUBPAJCYz71+en/D8Dwn/wBEu1r/AMGcP/xFAH6ZUV+Zv/D8Dwn/ANEu1r/wZw//ABFH/D8Dwn/0S7Wv/BnD/wDEUAfplRXMfC/xxF8Tvhp4S8Y29q9jB4h0i01aO1kYM0KzwpKEJHBID4z7V09ABRRXx/8Atgf8FGND/ZD+JemeDtT8Gah4invtIi1Zbq0vEhVVeaaLYQyk5BgJz/tCgD7Aor8zf+H4HhP/AKJdrX/gzh/+Io/4fgeE/wDol2tf+DOH/wCIoA/TKivj/wDY/wD+CjGh/tefEvU/B2meDNQ8Oz2OkS6s11d3iTKypNDFsAVQckzg5/2TX2BQAUUVzHxQ8cRfDH4aeLfGNxavfQeHtIu9WktY2CtMsELylATwCQmM+9AHT0V+Zv8Aw/A8J/8ARLta/wDBnD/8RR/w/A8J/wDRLta/8GcP/wARQB+mVFfmb/w/A8J/9Eu1r/wZw/8AxFfoX8L/ABxF8Tvhp4S8Y29q9jB4h0i01aO1kYM0KzwpKEJHBID4z7UAdPRRRQAUV8f/ALYH/BRjQ/2Q/iXpng7U/BmoeIp77SItWW6tLxIVVXmmi2EMpOQYCc/7Qrw3/h+B4T/6JdrX/gzh/wDiKAP0yor8zf8Ah+B4T/6JdrX/AIM4f/iK9y/Y/wD+CjGh/tefEvU/B2meDNQ8Oz2OkS6s11d3iTKypNDFsAVQckzg5/2TQB9gUUUUAFFFFABRRRQAUUUUAFFFFABRRRQAUUUUAFFFFABRRRQAUUUUAFFFFABRRRQAUUUUAFFFFABRRRQAUUUUAFFFFABWD4+8Gaf8RvA/iDwrqyeZpmtWE+nXK4yfLljZGI9wGyPcVvUUAfiV/wAE0PG+ofs2/ttat8NfEb/ZU1mS58M3iMcIt9BIxgf3y6PGvr59ftrX4v8A/BWb4S6j8Gf2mtB+LHh0PYweIhDepeQjHkapalASOwJVYJBnq289jX6sfs6/GjTf2gvgv4V8eaY0arqtmrXNvGc/ZrlflnhPf5ZAwGeowe9AHBft8fG5fgL+y34y12G4+z6zqFudG0rBw/2q4BQMvuieZL/2zr41/wCCJ/wVMdv44+K19bkGQr4f0uRh/CNs1yw9s/Z1BH91x615p/wVY+Ol18ev2gPD/wAHfBpbVbbw9dCyaG1O77XrE7KhjHYmMbY/Z2lFfqh+zf8ABqz/AGfvgf4Q8BWZjkbSLJUup4xgT3TEvPIO+GkZyM9AQO1AHpVFFFAH5U/8Fsvg2d3gT4p2cHBD+HtSkUf701sT/wCTAJP+yK+2P2E/jQPjv+y34H8QzT+fq1taDStTLHL/AGq3xGzN7uoST6SCt79rj4Jp+0J+zv408ErGr6jeWRm01mwNt5ERJBz2BdQpP91mr81/+COvx6bwB8VfEfwi16VrO38RZurCG4yhi1GBSJIsHo0kQOc94FHU0AfsRX4j/wDBRrxtqH7Uv7cOl/DXwzJ9qi0eeDwtZqvzJ9skkBuZD6bXYIx7CDPvX6sftY/tAad+zP8AAvxH42u3iN/DCbbSbWU/8fV9ICIY8dxkF2x0RHPavzb/AOCQHwOv/iR8ZPEnxp8RK95b6I0sFpdXAybjU7gEyyZ7lInbPvOhHSgD9Z/Avg7Tvh34K0HwtpEfk6VotjBp9qh6iOJAi59ThRk9zW7RRQBg+PvBmn/EbwP4g8K6snmaZrVhPp1yuMny5Y2RiPcBsj3FfjR/wTQ8b6h+zb+21q3w18Rv9lTWZLnwzeIxwi30EjGB/fLo8a+vn1+2tfi//wAFZvhLqPwZ/aa0H4seHQ9jB4iEN6l5CMeRqlqUBI7AlVgkGerbz2NAH7QV89ft8fG5fgL+y34y12G4+z6zqFudG0rBw/2q4BQMvuieZL/2zrvf2dfjRpv7QXwX8K+PNMaNV1WzVrm3jOfs1yvyzwnv8sgYDPUYPevyt/4KsfHS6+PX7QHh/wCDvg0tqtt4euhZNDand9r1idlQxjsTGNsfs7SigD0v/gif8FTHb+OPitfW5BkK+H9LkYfwjbNcsPbP2dQR/dcetfqfXmv7N/was/2fvgf4Q8BWZjkbSLJUup4xgT3TEvPIO+GkZyM9AQO1elUAFflT/wAFsvg2d3gT4p2cHBD+HtSkUf701sT/AOTAJP8Asiv1Wrx/9rj4Jp+0J+zv408ErGr6jeWRm01mwNt5ERJBz2BdQpP91moAwf2E/jQPjv8Ast+B/EM0/n6tbWg0rUyxy/2q3xGzN7uoST6SCvfq/Hf/AII6/HpvAHxV8R/CLXpWs7fxFm6sIbjKGLUYFIkiwejSRA5z3gUdTX6UftY/tAad+zP8C/Efja7eI38MJttJtZT/AMfV9ICIY8dxkF2x0RHPagD8p/8Ago1421D9qX9uHS/hr4Zk+1RaPPB4Ws1X5k+2SSA3Mh9NrsEY9hBn3r9m/Avg7Tvh34K0HwtpEfk6VotjBp9qh6iOJAi59ThRk9zX5Mf8EgPgdf8AxI+MniT40+Ile8t9EaWC0urgZNxqdwCZZM9ykTtn3nQjpX7CUAFYPj7wZp/xG8D+IPCurJ5mma1YT6dcrjJ8uWNkYj3AbI9xW9RQB+JX/BNDxvqH7Nv7bWrfDXxG/wBlTWZLnwzeIxwi30EjGB/fLo8a+vn1+2tfi/8A8FZvhLqPwZ/aa0H4seHQ9jB4iEN6l5CMeRqlqUBI7AlVgkGerbz2Nfqx+zr8aNN/aC+C/hXx5pjRquq2atc28Zz9muV+WeE9/lkDAZ6jB70AcF+3x8bl+Av7LfjLXYbj7PrOoW50bSsHD/argFAy+6J5kv8A2zr41/4In/BUx2/jj4rX1uQZCvh/S5GH8I2zXLD2z9nUEf3XHrXmn/BVj46XXx6/aA8P/B3waW1W28PXQsmhtTu+16xOyoYx2JjG2P2dpRX6ofs3/Bqz/Z++B/hDwFZmORtIslS6njGBPdMS88g74aRnIz0BA7UAelUUUUAflT/wWy+DZ3eBPinZwcEP4e1KRR/vTWxP/kwCT/sivtj9hP40D47/ALLfgfxDNP5+rW1oNK1Mscv9qt8Rsze7qEk+kgre/a4+CaftCfs7+NPBKxq+o3lkZtNZsDbeRESQc9gXUKT/AHWavzX/AOCOvx6bwB8VfEfwi16VrO38RZurCG4yhi1GBSJIsHo0kQOc94FHU0AfsRX4j/8ABRrxtqH7Uv7cOl/DXwzJ9qi0eeDwtZqvzJ9skkBuZD6bXYIx7CDPvX6sftY/tAad+zP8C/Efja7eI38MJttJtZT/AMfV9ICIY8dxkF2x0RHPavzb/wCCQHwOv/iR8ZPEnxp8RK95b6I0sFpdXAybjU7gEyyZ7lInbPvOhHSgD9Z/Avg7Tvh34K0HwtpEfk6VotjBp9qh6iOJAi59ThRk9zW7RRQBg+PvBmn/ABG8D+IPCurJ5mma1YT6dcrjJ8uWNkYj3AbI9xX40f8ABNDxvqH7Nv7bWrfDXxG/2VNZkufDN4jHCLfQSMYH98ujxr6+fX7a1+L/APwVm+Euo/Bn9prQfix4dD2MHiIQ3qXkIx5GqWpQEjsCVWCQZ6tvPY0AftBXz1+3x8bl+Av7LfjLXYbj7PrOoW50bSsHD/argFAy+6J5kv8A2zrvf2dfjRpv7QXwX8K+PNMaNV1WzVrm3jOfs1yvyzwnv8sgYDPUYPevyt/4KsfHS6+PX7QHh/4O+DS2q23h66Fk0Nqd32vWJ2VDGOxMY2x+ztKKAPS/+CJ/wVMdv44+K19bkGQr4f0uRh/CNs1yw9s/Z1BH91x61+p9ea/s3/Bqz/Z++B/hDwFZmORtIslS6njGBPdMS88g74aRnIz0BA7V6VQAV+VP/BbL4Nnd4E+KdnBwQ/h7UpFH+9NbE/8AkwCT/siv1Wrx/wDa4+CaftCfs7+NPBKxq+o3lkZtNZsDbeRESQc9gXUKT/dZqAMH9hP40D47/st+B/EM0/n6tbWg0rUyxy/2q3xGzN7uoST6SCvfq/Hf/gjr8em8AfFXxH8Itelazt/EWbqwhuMoYtRgUiSLB6NJEDnPeBR1NfpR+1j+0Bp37M/wL8R+Nrt4jfwwm20m1lP/AB9X0gIhjx3GQXbHREc9qAPyn/4KNeNtQ/al/bh0v4a+GZPtUWjzweFrNV+ZPtkkgNzIfTa7BGPYQZ96/ZvwL4O074d+CtB8LaRH5OlaLYwafaoeojiQIufU4UZPc1+TH/BID4HX/wASPjJ4k+NPiJXvLfRGlgtLq4GTcancAmWTPcpE7Z950I6V+wlABWD4+8Gaf8RvA/iDwrqyeZpmtWE+nXK4yfLljZGI9wGyPcVvUUAfiV/wTQ8b6h+zb+21q3w18Rv9lTWZLnwzeIxwi30EjGB/fLo8a+vn1+2tfi//AMFZvhLqPwZ/aa0H4seHQ9jB4iEN6l5CMeRqlqUBI7AlVgkGerbz2Nfqx+zr8aNN/aC+C/hXx5pjRquq2atc28Zz9muV+WeE9/lkDAZ6jB70AcF+3x8bl+Av7LfjLXYbj7PrOoW50bSsHD/argFAy+6J5kv/AGzr41/4In/BUx2/jj4rX1uQZCvh/S5GH8I2zXLD2z9nUEf3XHrXmn/BVj46XXx6/aA8P/B3waW1W28PXQsmhtTu+16xOyoYx2JjG2P2dpRX6ofs3/Bqz/Z++B/hDwFZmORtIslS6njGBPdMS88g74aRnIz0BA7UAelUUUUAflT/AMFsvg2d3gT4p2cHBD+HtSkUf701sT/5MAk/7Ir7Y/YT+NA+O/7LfgfxDNP5+rW1oNK1Mscv9qt8Rsze7qEk+kgre/a4+CaftCfs7+NPBKxq+o3lkZtNZsDbeRESQc9gXUKT/dZq/Nf/AII6/HpvAHxV8R/CLXpWs7fxFm6sIbjKGLUYFIkiwejSRA5z3gUdTQB+xFfiP/wUa8bah+1L+3Dpfw18MyfaotHng8LWar8yfbJJAbmQ+m12CMewgz71+rH7WP7QGnfsz/AvxH42u3iN/DCbbSbWU/8AH1fSAiGPHcZBdsdERz2r82/+CQHwOv8A4kfGTxJ8afESveW+iNLBaXVwMm41O4BMsme5SJ2z7zoR0oA9O+MX/BFHw7qFm9z8MfG15o+oKgxp/iNRcW0jYxxNGoeMd+Vkr4H+I37PPxR/Y+8VQXXjz4e2d/pXmhVm1C2F9pN6M8L50ZBQnrtDJJ7Cv6LqyfFdjompeGtTtfEsFhc6BJbuL6LVFRrVocfN5of5duOueKAPzX/Yyn/ZB/auZPD138ING8J/EGOEyPo888zw3gUZd7WTeN+ANxRgGAz94KWr9LfDfh3TvCPh3S9C0e0Sw0jS7WKys7WPO2GGNAkaDPOAqgc+lfz6ftB/8IV4E/a6879m7VLq8srXUbaXSZLEmRI9Q3jMVq5OZYt+0KTkHJALLhj/AEMxlzGhkAWTA3BTkA98UAPooooA8q+K37LPwo+OHiK313x14J0/xJq9varZRXV2ZAyQq7uqDawGA0jn/gRrjP8Ah3r+zp/0SnRf++pv/jlfRFFAHzv/AMO9f2dP+iU6L/31N/8AHK7P4U/ss/Cj4H+IrjXfAvgnT/Der3Fq1lLdWhkLPCzo7IdzEYLRof8AgIr1WigAooooAzvEnh3TvF3h3VNC1i0S/wBI1S1lsry1kztmhkQpIhxzgqxHHrXhH/DvX9nT/olOi/8AfU3/AMcr6IooA+d/+Hev7On/AESnRf8Avqb/AOOUf8O9f2dP+iU6L/31N/8AHK+iKKAM7w34d07wj4d0vQtHtEsNI0u1isrO1jzthhjQJGgzzgKoHPpWjRRQAV5V8Vv2WfhR8cPEVvrvjrwTp/iTV7e1WyiursyBkhV3dUG1gMBpHP8AwI16rRQB87/8O9f2dP8AolOi/wDfU3/xyj/h3r+zp/0SnRf++pv/AI5X0RRQB5V8Kf2WfhR8D/EVxrvgXwTp/hvV7i1aylurQyFnhZ0dkO5iMFo0P/ARXqtFFABWd4k8O6d4u8O6poWsWiX+kapay2V5ayZ2zQyIUkQ45wVYjj1rRooA+d/+Hev7On/RKdF/76m/+OUf8O9f2dP+iU6L/wB9Tf8AxyvoiigD53/4d6/s6f8ARKdF/wC+pv8A45XrupeHdO8I/Cu60LR7RLDSNL0VrKztY87YYY4CkaDPOAqgc+ldXWL42/5E3Xv+vC4/9FtQB/LjRX1t8Af+CYnxr+OH2a+vNGHgPw7KA39peI1aGR0POY7bHmNxggsFU54av0n+AP8AwSr+DPwaa31DXLKT4jeII8N9q15F+yIwxylqMpjj/loZD70AfkF8C/2SPit+0ZdIPBPhG8vdOLbX1i6H2ewj9czvhWIx91dze1fpD8Av+CMPhPw39n1H4s+IZfFt6MM2i6Mz2tiDxlWm4lkHXlfKr9IbW1gsLWK2toY7e3hQRxwxKFRFAwFAHAAHYVNQB86Q/wDBO/8AZzhjWNfhVo5VRgF5Z2P4kyZP4123wp/ZZ+FHwP8AEVxrvgXwTp/hvV7i1aylurQyFnhZ0dkO5iMFo0P/AAEV6rRQAUUUUAZ3iTw7p3i7w7qmhaxaJf6RqlrLZXlrJnbNDIhSRDjnBViOPWvCP+Hev7On/RKdF/76m/8AjlfRFFAHzv8A8O9f2dP+iU6L/wB9Tf8Axyj/AId6/s6f9Ep0X/vqb/45X0RRQBneG/DuneEfDul6Fo9olhpGl2sVlZ2sedsMMaBI0GecBVA59K0aKKACvKvit+yz8KPjh4it9d8deCdP8Savb2q2UV1dmQMkKu7qg2sBgNI5/wCBGvVaKAPnf/h3r+zp/wBEp0X/AL6m/wDjlH/DvX9nT/olOi/99Tf/AByvoiigDyr4U/ss/Cj4H+IrjXfAvgnT/Der3Fq1lLdWhkLPCzo7IdzEYLRof+AivVaKKACs7xJ4d07xd4d1TQtYtEv9I1S1lsry1kztmhkQpIhxzgqxHHrWjRQB87/8O9f2dP8AolOi/wDfU3/xyj/h3r+zp/0SnRf++pv/AI5X0RRQB87/APDvX9nT/olOi/8AfU3/AMcr3fw34d07wj4d0vQtHtEsNI0u1isrO1jzthhjQJGgzzgKoHPpWjRQAUUUUAeVfFb9ln4UfHDxFb67468E6f4k1e3tVsorq7MgZIVd3VBtYDAaRz/wI1xn/DvX9nT/AKJTov8A31N/8cr6IooA+d/+Hev7On/RKdF/76m/+OV2fwp/ZZ+FHwP8RXGu+BfBOn+G9XuLVrKW6tDIWeFnR2Q7mIwWjQ/8BFeq0UAFFFFABRRRQAUUUUAFFFFABRRRQAUUUUAFFFFABRRRQAUUUUAFFFFABRRRQAUUUUAFFFFABRRRQAUUUUAFFFFABRRRQAUUUUAeNftbfs36X+1N8E9Y8FXrx2mosReaTqEikizvUB8tzjnaQzI2OdrtjnFfi74X+OX7QX7A83i/4YwCbwxNqUjb7a/tPO8qXGz7VZsflJZQuHXcrbV4yBj+geoprWG4aNpYo5GjbcjOoJU+o9DQB+YH/BLz9hXxBofij/hdXxQ0y4stRCu2g6Zqin7SZJAd97MrcqcFggb5iWZyBhCf1EoooAKKKKACvyD/AOClP7Gfir4V/Fd/jt8LrO7/ALLurtdU1H+yUYz6RqCsHN0AoyI3Yby38L7s4BWv18ooA/Ay+8XftBf8FOviB4d8PTINTg0oLGz2dqbbTNPDnEl1cEZAcgeuTt2ovOD+2XwD+Cuhfs9/Cbw/4D8PJmy0uDbJcsoV7qdvmlnf/adyTjsMAcAV3lvaw2qlYIo4VLFisahQSep471LQAUUUUAFeNftbfs36X+1N8E9Y8FXrx2mosReaTqEikizvUB8tzjnaQzI2OdrtjnFey0UAfz8eF/jl+0F+wPN4v+GMAm8MTalI2+2v7TzvKlxs+1WbH5SWULh13K21eMgY+w/+CXn7CviDQ/FH/C6vihplxZaiFdtB0zVFP2kySA772ZW5U4LBA3zEszkDCE/p/Naw3DRtLFHI0bbkZ1BKn1HoaloAKKKKACiiigD8g/8AgpT+xn4q+FfxXf47fC6zu/7LurtdU1H+yUYz6RqCsHN0AoyI3Yby38L7s4BWvCL7xd+0F/wU6+IHh3w9Mg1ODSgsbPZ2pttM08OcSXVwRkByB65O3ai84P751Fb2sNqpWCKOFSxYrGoUEnqeO9AHB/AP4K6F+z38JvD/AID8PJmy0uDbJcsoV7qdvmlnf/adyTjsMAcAV6DRRQAUUUUAeNftbfs36X+1N8E9Y8FXrx2mosReaTqEikizvUB8tzjnaQzI2OdrtjnFfi74X+OX7QX7A83i/wCGMAm8MTalI2+2v7TzvKlxs+1WbH5SWULh13K21eMgY/oHqKa1huGjaWKORo23IzqCVPqPQ0AfmB/wS8/YV8QaH4o/4XV8UNMuLLUQrtoOmaop+0mSQHfezK3KnBYIG+YlmcgYQn9RKKKACiiigAr8g/8AgpT+xn4q+FfxXf47fC6zu/7LurtdU1H+yUYz6RqCsHN0AoyI3Yby38L7s4BWv18ooA/Ay+8XftBf8FOviB4d8PTINTg0oLGz2dqbbTNPDnEl1cEZAcgeuTt2ovOD+2XwD+Cuhfs9/Cbw/wCA/DyZstLg2yXLKFe6nb5pZ3/2nck47DAHAFd5b2sNqpWCKOFSxYrGoUEnqeO9S0AFFFFABXjX7W37N+l/tTfBPWPBV68dpqLEXmk6hIpIs71AfLc452kMyNjna7Y5xXstFAH8/Hhf45ftBfsDzeL/AIYwCbwxNqUjb7a/tPO8qXGz7VZsflJZQuHXcrbV4yBj7D/4JefsK+IND8Uf8Lq+KGmXFlqIV20HTNUU/aTJIDvvZlblTgsEDfMSzOQMIT+n81rDcNG0sUcjRtuRnUEqfUehqWgAooooAKKKKAPyD/4KU/sZ+KvhX8V3+O3wus7v+y7q7XVNR/slGM+kagrBzdAKMiN2G8t/C+7OAVrwi+8XftBf8FOviB4d8PTINTg0oLGz2dqbbTNPDnEl1cEZAcgeuTt2ovOD++dRW9rDaqVgijhUsWKxqFBJ6njvQBwfwD+Cuhfs9/Cbw/4D8PJmy0uDbJcsoV7qdvmlnf8A2nck47DAHAFeg0UUAFFFFAHjX7W37N+l/tTfBPWPBV68dpqLEXmk6hIpIs71AfLc452kMyNjna7Y5xX4u+F/jl+0F+wPN4v+GMAm8MTalI2+2v7TzvKlxs+1WbH5SWULh13K21eMgY/oHqKa1huGjaWKORo23IzqCVPqPQ0AfmB/wS8/YV8QaH4o/wCF1fFDTLiy1EK7aDpmqKftJkkB33sytypwWCBvmJZnIGEJ/USiigAooooAK/IP/gpT+xn4q+FfxXf47fC6zu/7LurtdU1H+yUYz6RqCsHN0AoyI3Yby38L7s4BWv18r4//AGsP+CmHw4/Zp1K68N2EMnjnxvb5SbStPmEcFm/924nIIVv9hVZhj5gvGQD8zL7xd+0F/wAFOviB4d8PTINTg0oLGz2dqbbTNPDnEl1cEZAcgeuTt2ovOD+tfhvxJ8FP2Cfg7oPgjWPGmj+H7bSbYF0upgb69lb5pbj7Om6Vy7En5VIAIA4Ar8svEH7cf7UH7VmtXPhzwBFf6Ta3DEnRfANg8borHG6S4XMq57sXVTzwK774Q/8ABHD4oePZk1b4l+JrHwXFcN5s1tG39pai5Jyd5VhGpP8Ae8xznqKAPZ/jb/wWo8M6Os9j8LPCFz4huxlV1bxATa2oPZlhQmSQezNGa+QNQ8YftTf8FFtaOnQLq+vaF5wDWdhF9h0O0I5HmNxGSvJHmM79cZ6V+nXwf/4Jd/AP4T+RcXHhmTxvqkeD9s8Uyi6TPf8A0cBYSM/3kY+/XP1Xpml2ei6fBY6daQWFjboI4ba1iWOONR0VVUAAewoA+Jv2Kf8AgmL4b/Zx1Cx8Z+M7yHxd8QYBvt/KUiw0xyCMwhgDJJyf3jgY42qpG4/cdFFABRRRQAUUUUAFFFFABRRRQAUUUUAFFFFABRRRQAUUUUAFFFFABRRRQAUUUUAFFFFABRRRQAUUUUAFFFFABRRRQAUUUUAFFFFABRRRQAUUUUAFFFFABRRRQAUUUUAFFFFABRRRQAUUUUAFFFFABRRRQAUUUUAFFFFABRRRQAUUUUAFFFFABRRRQAUUUUAFFFFABRRRQAUUUUAFFFFABRRRQAUUUUAFFFFABRRRQAUUUUAFFFFABRRRQAUUUUAFFFFABRRRQAUUUUAFFFFABRRRQAUUUUAFFFFABRRRQAUUUUAFFFFABRRRQAUUUUAFFFFABRRRQAUUUUAFFFFABRRRQAUUUUAFFFFABRRRQAUUUUAFFFFABRRRQAUUUUAFFFFABRRRQAUUUUAFFFFABRRRQB4J+3d8UPEHwd/ZP+IPirwu8kOuW1rDb291F9628+4igaZfRkWVmB7EA1+X3/BMz9jvwB+1Hr3iHX/H2utqJ0O4QnwnDOY5rwOM+fO4O/ytx24QglgcsBgN+0vi3wnpPjrwvqvh3XrGPUtF1S2ktLy0mHyyxOpVlOORweo5HUc1+MX7Qn7BPxg/Yv8AHTfEL4RX+rax4as5WmtdV0ck6jp0Z52XMSj50xkFwCjAHeFzigD9lfA/w/8ADXw00CHRPCeg6d4c0iH7lnplskEee7EKBlj3Y8nua36/KP8AZ/8A+C0k9vHbaV8YvC5usYQ+IPDihXPbdLbMQCe5ZGHslfoZ8H/2nPhb8erZJPAvjbStcuGXe1gsvlXiDHJa3kCyAe5XHHWgD1CiiigAooooAKKKKACiiigAooooAKKKKACiiigAooooAKKKKACiiigAooooAKKKKACiiigAooooAKKKKACiiigAooooAKKKKACiiigAooooAKKKKACiiigAooooAKKKKACiiigAooooAKKKKACiiigAooooAKKKKACiiigAooooAKKKKACiiigAooooAKKKKACiiigAooooAKKKKACiiigAooooAKKKKACiiigAooooAKKKKACiiigAooooAKKKKACiiigAooooAKKKKACiiigAooooAKKKKACiiigAooooAKKKKACiiigAooooAKKKKACiiigAooooAKKKKACiiigAooooAKKKKACiiigAooooAKKKKACiiigAooooAKKKKACiiigAooooAKKKKACiiigAooooAKKKKACiiigD5w+PX/BPv4K/tCSXV9rXhddD8QXBLNrvh8izumY9WcAGOU+8iMeOtfAPxe/4I0/EfwVcNqvwv8VWXi6KBvNhtLpv7N1BCOVCOSYmI/vF4/pX7G0UAfhnof7ZH7Wf7G+qW+jeN49Xu9PjbYmn+ObOS4jlA/55XWQ7ADgbJWUY6HFfcX7PH/BXD4V/Fea20nxtDJ8NNdkwolv5RNpsrHji4AHl+v71VUf3jX2z4g8O6T4s0i40rXNLs9Z0u4XbNY6hbpPBKPRkcFWH1FfBf7Sn/BIL4f8AxCtbzVvhdcf8ID4iKl106Rml0u4frgqcvDk90JUdkoA+/wCzvINQtYbq1njubaZBJFNC4dJFIyGVhwQRzkVNX4ffsx/tPfE3/gn58bv+FZfExbyPwat2lvqej3khmXT0cgi8tGBI24beQnyupPG7BH7fxyLIiujB0YZDKcgj1FADqKKKACiiigAooooAKKKKACiiigAooooAKKKKACiiigAooooAKKKKACiiigAooooAKKKKACiiigAooooAKKKKACiiigAooooAKKKKACiiigAooooAKKKKACiiigAooooAKKKKACiiigAooooAKKKKACiiigAooooAKKKKACiiigAooooAKKKKACiiigAooooAKKKKACiiigAooooAKKKKACiiigAooooAKKKKACiiigAooooAKKKKACiiigAooooAKKKKACiiigAooooAKKKKACiiigAooooAKKKKACiiigAooooAKKKKACiiigAooooAKKKKACiiigAooooAKKKKACiiigAooooAKKKKACiiigAooooAKKKKACiiigAooooAKKKKACiiigAooooAKKKKACiimySLGjO7BEUZLMcAD1NADqK+XPjR/wAFKPgP8F2urSfxYPFetQZB0zwwn2xtw/hMwIhUg8EGTI9K+EPix/wWV+J3ja6fTPhp4V0/whFO3lQXFwp1PUGY8KUBAiBP90xv2GT3AP2B8QeI9J8J6TcarrmqWejaZbrumvdQuEghiHqzuQoH1NfD/wC0V/wV0+F3wxtrrTfh8rfEfxGoKLLb7odMhb1aYjMmODiMEHkb1r4c039kP9rj9sjVLfV/GEWtJaOd0eoeObx7SCAN3jtiC6qRz+7ix+dfYvwB/wCCN/gDwPNa6p8S9auPHmpRkP8A2XbKbTTlb0bB8yXB77kB6FTQB8afCD4UfFn/AIKYftEx+M/F0Uj+Go7mJNX1kQmCytLSM7vsdsM8sQSoUFmBfe55LH92ERY1VVUKqjAVRgAelUPD/h3SvCei2ej6Jptpo+k2cYitrGxgWGGFB/CiKAFH0FaNABRRRQAUUUUAFFFFABRRRQAUUUUAFFFFABRRRQAUUUUAFFFFABRRRQAUUUUAFFFFABRRRQAUUUUAFFFFABRRRQAUUUUAFFFFABRRRQAUUUUAFFFFABRRRQAUUUUAFFFFABRRRQAUUUUAFFFFABRRRQAUUUUAFFFFABRRRQAUUUUAFFFFABRRRQAUUUUAFFFFABRRRQAUUUUAFFFFABRRRQAUUUUAFFFFABRRRQAUUUUAFFFFABRRRQAUUUUAFFFFABRRRQAUUUUAFFFFABRRRQAUUUUAFFFFABRRRQAUUUUAFFFFABRRRQAUUUUAFFFFABRRRQAUUUUAFFFFABRRRQAUUUUAFFFFABRRRQAUUUUAFFFFABRRRQAUUUUAFFFFABRRRQAUUUUAFFFFABRRRQBzXxK+IeifCbwDr3jHxHcNa6Joto95dSIu59qj7qjuzHCgdyQK/Ej4r/tI/Hr/AIKMfEiTwj4N0/UovDsjn7P4V0iUpbRQ5wJb2b5VftlpCEB4UAnn9dP2yvgzf/tAfs0eOvA2lS+Vq+oWiTWILbRJcQSpPHGSTgB2iCEngbs9q/Kb9gH9tK3/AGJ/E3ibwH8RPC11aaVqOoqb+8ityuoaZcRgxsssZG6SMf3chlO8gMWxQB7r8B/+CK1tHHb6j8XfF7zS8MdD8M/Kg74kuZFyfQhEHThz1r9APhD+zT8MPgPZpB4F8FaVoMqrta+jh828kHo9w+6Rh7Fsc10Xw5+KnhD4veHY9d8F+I9O8S6U+B9o0+cSbCRna69Ub/ZYAj0rqqACiiigAooooAKKKKACiiigAooooAKKKKACiiigAooooAKKKKACiiigAooooAKKKKACiiigAooooAKKKKACiiigAooooAKKKKACiiigAooooAKKKKACiiigAooooAKKKKACiiigAooooAKKKKACiiigAooooAKKKKACiiigAooooAKKKKACiiigAooooAKKKKACiiigAooooAKKKKACiiigAooooAKKKKACiiigAooooAKKKKACiiigAooooAKKKKACiiigAooooAKKKKACiiigAooooAKKKKACiiigAooooAKKKKACiiigAooooAKKKKACiiigAooooAKKKKACiiigAooooAKKKKACiiigAooooAKKKKACiiigAooooAKKKKACiiigAooooAKKKKACiiigAooooAKKKKACvnD9qf8AYN+Gf7Vdu17rVk+g+LlTbD4l0pVW4IAwqzKRtmQYHDfMAMKy819H0UAfh98QP+Cev7Sf7JviKXxP8OL2/wDENpbkmPWPBk8kV75fXEtqD5hzjlV8xcdTXU/CT/gsR8Vfh3eLo/xP8NWfjGK3byp5vL/szUoyODu2r5ZI/u+WpPdq/ZivOviz+zt8NPjpZm38deC9J8RNt2LdXEAW6jHok6YkT/gLCgDxn4L/APBTT4D/ABkNva/8JQfBusS4H9n+KEFp83oJ8mE89BvBPpX1PBPHdQxzQyLNDIodJI2DKykZBBHUEV+aXxs/4Iq+GtXS4vfhZ4wuvD92csmk+IB9ptSeyrMgEka+7LIa+UrfWv2qv+CbOtxR3K6jY+GTLtW3uidQ0C75zhSDtjZv9kxyY60Afu9RXyT+xn/wUS8F/tXbPD93b/8ACJfECOLzH0eeUPDeBRlntZON+ANxQgMBn7wUtX1tQAUUUUAFFFFABRRRQAUUUUAFFFFABRRRQAUUUUAFFFFABRRRQAUUUUAFFFFABRRRQAUUUUAFFFFABRRRQAUUUUAFFFFABRRRQAUUUUAFFFFABRRRQAUUUUAFFFFABRRRQAUUUUAFFFFABRRRQAUUUUAFFFFABRRRQAUUUUAFFFFABRRRQAUUUUAFFFFABRRRQAUUUUAFFFFABRRRQAUUUUAFFFFABRRRQAUUUUAFFFFABRRRQAUUUUAFFFFABRRRQAUUUUAFFFFABRRRQAUUUUAFFFFABRRRQAUUUUAFFFFABRRRQAUUUUAFFFFABRRRQAUUUUAFFFFABRRRQAUUUUAFFFFABRRRQAUUUUAFFFFABRRRQAUUUUAFFFFABRRRQAUUUUAFFFFABRRRQAUUUUAFFFFABRRXm/xY/aO+GPwOt3l8c+N9H8PSqu8WdxcB7t1xnKW6Zlf/AICp6igD0isnxXY6JqXhrU7XxLBYXOgSW7i+i1RUa1aHHzeaH+Xbjrnivzl+Nv8AwWo8M6Os9j8LPCFz4huxlV1bxATa2oPZlhQmSQezNGa+QNQ8YftTf8FFtaOnQLq+vaF5wDWdhF9h0O0I5HmNxGSvJHmM79cZ6UAcr8fIvBngv9sKN/2bdUnu7S31O1k0eS0YvFFqPmD91bOxJli8zaFY5ByQCy4Y/wBC0PmeSnm7fN2jfszt3Y5xntXw/wDsU/8ABMXw3+zjqFj4z8Z3kPi74gwDfb+UpFhpjkEZhDAGSTk/vHAxxtVSNx+46ACiiigAooooAKKKKACiiigAooooAKKKKACiiigAooooAKKKKACiiigAooooAKKKKACiiigAooooAKKKKACiiigAooooAKKKKACiiigAooooAKKKKACiiigAooooAKKKKACiiigAooooAKKKKACiiigAooooAKKKKACiiigAooooAKKKKACiiigAooooAKKKKACiiigAooooAKKKKACiiigAooooAKKKKACiiigAooooAKKKKACiiigAooooAKKKKACiiigAooooAKKKKACiiigAooooAKKKKACiiigAooooAKKKKACiiigAooooAKKKKACiiigAooooAKKKKACiiigAooooAKKKKACiiigAooooAKKKKACiiigAooooAKKKKACiiigAooooAKKKKACiiigAr4//AGsP+CmHw4/Zp1K68N2EMnjnxvb5SbStPmEcFm/924nIIVv9hVZhj5gvGfR/26fib4g+D/7KHxC8VeFzLHrlrZxwW9zD9+286eOBp190WUuD2Kg9Aa/L/wD4Jl/saeBP2pNW8ReJfHutNqUeg3Uat4WhnMct3vUt587g7/KJyoCEEsrZYAYYAyPFH7dn7U37W2vXHh/wOdS0+3m4/sfwLZOjxoeAZLgbpVGOrF1XrwBXc/CH/gjh8UPHsyat8S/E1j4LiuG82a2jb+0tRck5O8qwjUn+95jnPUV+vHgf4f8Ahr4aaBDonhPQdO8OaRD9yz0y2SCPPdiFAyx7seT3Nb9AHyV8H/8Agl38A/hP5FxceGZPG+qR4P2zxTKLpM9/9HAWEjP95GPv1z9V6ZpdnounwWOnWkFhY26COG2tYljjjUdFVVAAHsKtUUAFFFFABRRRQAUUUUAFFFFABRRRQAUUUUAFFFFABRRRQAUUUUAFFFFABRRRQAUUUUAFFFFABRRRQAUUUUAFFFFABRRRQAUUUUAFFFFABRRRQAUUUUAFFFFABRRRQAUUUUAFFFFABRRRQAUUUUAFFFFABRRRQAUUUUAFFFFABRRRQAUUUUAFFFFABRRRQAUUUUAFFFFABRRRQAUUUUAFFFFABRRRQAUUUUAFFFFABRRRQAUUUUAFFFFABRRRQAUUUUAFFFFABRRRQAUUUUAFFFFABRRRQAUUUUAFFFFABRRRQAUUUUAFFFFABRRRQAUUUUAFFFFABRRRQAUUUUAFFFFABRRRQAUUUUAFFFFABRRRQAUUUUAFFFFABRRRQAUUUUAFFFFABRRRQAUUUUAFFFFABRRRQBleKvC+l+NvDOq+H9bs49Q0fVLWSyvLWTO2WGRSrqceoJ6c1+MH7RH7Bfxf/Yu8dP8AEP4RX+rat4Zs5WmtdV0ck6hp0fUx3USj50xkFwCjAHeFziv20ooA/KP9n/8A4LST28dtpfxh8Lm6xhD4g8OKFc9t0tsxAJ7lkYeyV+hnwf8A2nPhb8erZJPAvjbStcuGXe1gsvlXiDHJa3kCyAe5XHHWuA+PX/BPv4K/tCSXV9rXhddD8QXBLNrvh8izumY9WcAGOU+8iMeOtfAPxe/4I0/EfwVcNqvwv8VWXi6KBvNhtLpv7N1BCOVCOSYmI/vF4/pQB+xtFfhnof7ZH7Wf7G+qW+jeN49Xu9PjbYmn+ObOS4jlA/55XWQ7ADgbJWUY6HFfcX7PH/BXD4V/Fea20nxtDJ8NNdkwolv5RNpsrHji4AHl+v71VUf3jQB91UVDZ3kGoWsN1azx3NtMgkimhcOkikZDKw4II5yKmoAKKKKACiiigAooooAKKKKACiiigAooooAKKKKACiiigAooooAKKKKACiiigAooooAKKKKACiiigAooooAKKKKACiiigAooooAKKKKACiiigAooooAKKKKACiiigAooooAKKKKACiiigAooooAKKKKACiiigAooooAKKKKACiiigAooooAKKKKACiiigAooooAKKKKACiiigAooooAKKKKACiiigAooooAKKKKACiiigAooooAKKKKACiiigAooooAKKKKACiiigAooooAKKKKACiiigAooooAKKKKACiiigAooooAKKKKACiiigAooooAKKKKACiiigAooooAKKKKACiiigAooooAKKKKACiiigAooooAKKKKACiiigAooooAKKKKACiiigAooooAKKKKACiiigAooooAzvEHh3SfFmkXGla5pdnrOl3C7ZrHULdJ4JR6Mjgqw+or4L/aU/wCCQXw/+IVreat8Lrj/AIQHxEVLrp0jNLpdw/XBU5eHJ7oSo7JX3p4g8R6T4T0m41XXNUs9G0y3XdNe6hcJBDEPVnchQPqa+H/2iv8Agrp8LvhjbXWm/D5W+I/iNQUWW33Q6ZC3q0xGZMcHEYIPI3rQB8X/ALMf7T3xN/4J+fG7/hWXxMW8j8Grdpb6no95IZl09HIIvLRgSNuG3kJ8rqTxuwR+38ciyIrowdGGQynII9RX4T/CD4UfFn/gph+0TH4z8XRSP4ajuYk1fWRCYLK0tIzu+x2wzyxBKhQWYF97nksf3YRFjVVVQqqMBVGAB6UAOooooAKKKKACiiigAooooAKKKKACiiigAooooAKKKKACiiigAooooAKKKKACiiigAooooAKKKKACiiigAooooAKKKKACiiigAooooAKKKKACiiigAooooAKKKKACiiigAooooAKKKKACiiigAooooAKKKKACiiigAooooAKKKKACiiigAooooAKKKKACiiigAooooAKKKKACiiigAooooAKKKKACiiigAooooAKKKKACiiigAooooAKKKKACiiigAooooAKKKKACiiigAooooAKKKKACiiigAooooAKKKKACiiigAooooAKKKKACiiigAooooAKKKKACiiigAooooAKKKKACiiigAooooAKKKKACiiigAooooAKKKKACiiigAooooAKKKKACiiigAooooAKbJIsaM7sERRksxwAPU1znxK+IeifCbwDr3jHxHcNa6Joto95dSIu59qj7qjuzHCgdyQK/Ej4r/tI/Hr/gox8SJPCPg3T9Si8OyOfs/hXSJSltFDnAlvZvlV+2WkIQHhQCeQD9OfjR/wAFKPgP8F2urSfxYPFetQZB0zwwn2xtw/hMwIhUg8EGTI9K+EPix/wWV+J3ja6fTPhp4V0/whFO3lQXFwp1PUGY8KUBAiBP90xv2GT39G+A/wDwRWto47fUfi74veaXhjofhn5UHfElzIuT6EIg6cOetfoB8If2afhh8B7NIPAvgrStBlVdrX0cPm3kg9HuH3SMPYtjmgD8d9N/ZD/a4/bI1S31fxhFrSWjndHqHjm8e0ggDd47Yguqkc/u4sfnX2L8Af8Agjf4A8DzWuqfEvWrjx5qUZD/ANl2ym005W9GwfMlwe+5AehU1+h9FAGd4f8ADuleE9Fs9H0TTbTR9Js4xFbWNjAsMMKD+FEUAKPoK0aKKACiiigAooooAKKKKACiiigAooooAKKKKACiiigAooooAKKKKACiiigAooooAKKKKACiiigAooooAKKKKACiiigAooooAKKKKACiiigAooooAKKKKACiiigAooooAKKKKACiiigAooooAKKKKACiiigAooooAKKKKACiiigAooooAKKKKACiiigAooooAKKKKACiiigAooooAKKKKACiiigAooooAKKKKACiiigAooooAKKKKACiiigAooooAKKKKACiiigAooooAKKKKACiiigAooooAKKKKACiiigAooooAKKKKACiiigAooooAKKKKACiiigAooooAKKKKACiiigAooooAKKKKACiiigAooooAKKKKACiiigAooooAKKKKACiiigAooooAKKKKACiiigDxf8AbK+DN/8AtAfs0eOvA2lS+Vq+oWiTWILbRJcQSpPHGSTgB2iCEngbs9q/Kb9gH9tK3/Yn8TeJvAfxE8LXVppWo6ipv7yK3K6hplxGDGyyxkbpIx/dyGU7yAxbFfuDXzh+1P8AsG/DP9qu3a91qyfQfFypth8S6UqrcEAYVZlI2zIMDhvmAGFZeaAPZfhz8VPCHxe8Ox674L8R6d4l0p8D7Rp84k2EjO116o3+ywBHpXVV+H3xA/4J6/tJ/sm+IpfE/wAOL2/8Q2luSY9Y8GTyRXvl9cS2oPmHOOVXzFx1NdT8JP8AgsR8Vfh3eLo/xP8ADVn4xit28qeby/7M1KMjg7tq+WSP7vlqT3agD9mKK+VPgv8A8FNPgP8AGQ29r/wlB8G6xLgf2f4oQWnzegnyYTz0G8E+lfU8E8d1DHNDIs0Mih0kjYMrKRkEEdQRQBJRRRQAUUUUAFFFFABRRRQAUUUUAFFFFABRRRQAUUUUAFFFFABRRRQAUUUUAFFFFABRRRQAUUUUAFFFFABRRRQAUUUUAFFFFABRRRQAUUUUAFFFFABRRRQAUUUUAFFFFABRRRQAUUUUAFFFFABRRRQAUUUUAFFFFABRRRQAUUUUAFFFFABRRRQAUUUUAFFFFABRRRQAUUUUAFFFFABRRRQAUUUUAFFFFABRRRQAUUUUAFFFFABRRRQAUUUUAFFFFABRRRQAUUUUAFFFFABRRRQAUUUUAFFFFABRRRQAUUUUAFFFFABRRRQAUUUUAFFFFABRRRQAUUUUAFFFFABRRRQAUUUUAFFFFABRRRQAUUUUAFFFFABRRRQAUUUUAFFFFABRRRQAUUUUAFFFFABRRRQAUUUUAFFFFABXnXxZ/Z2+Gnx0szb+OvBek+Im27FuriALdRj0SdMSJ/wFhXotFAH5nfGz/gir4a1dLi9+FnjC68P3ZyyaT4gH2m1J7KsyASRr7sshr5St9a/aq/4Js63FHcrqNj4ZMu1be6J1DQLvnOFIO2Nm/wBkxyY61+71ZPiux0TUvDWp2viWCwudAkt3F9Fqio1q0OPm80P8u3HXPFAHy/8AsZ/8FEvBf7V2zw/d2/8AwiXxAji8x9HnlDw3gUZZ7WTjfgDcUIDAZ+8FLV9bV/PN8fIvBngv9sKN/wBm3VJ7u0t9TtZNHktGLxRaj5g/dWzsSZYvM2hWOQckAsuGP9C0PmeSnm7fN2jfszt3Y5xntQA+iiigAooooAKKKKACiiigAooooAKKKKACiiigAooooAKKKKACiiigAooooAKKKKACiiigAooooAKKKKACiiigAooooAKKKKACiiigAooooAKKKKACiiigAooooAKKKKACiiigAooooAKKKKACiiigAooooAKKKKACiiigAooooAKKKKACiiigAooooAKKKKACiiigAooooAKKKKACiiigAooooAKKKKACiiigAooooAKKKKACiiigAooooAKKKKACiiigAooooAKKKKACiiigAooooAKKKKACiiigAooooAKKKKACiiigAooooAKKKKACiiigAooooAKKKKACiiigAooooAKKKKACiiigAooooAKKKKACiiigAooooAKKKKACiiigAooooAKKKKACiiigAoor4/8A2sP+CmHw4/Zp1K68N2EMnjnxvb5SbStPmEcFm/8AduJyCFb/AGFVmGPmC8ZAPsCvN/ix+0d8MfgdbvL458b6P4elVd4s7i4D3brjOUt0zK//AAFT1Ffjv4o/bs/am/a21648P+BzqWn283H9j+BbJ0eNDwDJcDdKox1Yuq9eAK7n4Q/8EcPih49mTVviX4msfBcVw3mzW0bf2lqLknJ3lWEak/3vMc56igD2f42/8FqPDOjrPY/Czwhc+IbsZVdW8QE2tqD2ZYUJkkHszRmvkDUPGH7U3/BRbWjp0C6vr2hecA1nYRfYdDtCOR5jcRkryR5jO/XGelfp18H/APgl38A/hP5FxceGZPG+qR4P2zxTKLpM9/8ARwFhIz/eRj79c/VemaXZ6Lp8Fjp1pBYWNugjhtrWJY441HRVVQAB7CgD4m/Yp/4Ji+G/2cdQsfGfjO8h8XfEGAb7fylIsNMcgjMIYAyScn944GONqqRuP3HRRQAUUUUAFFFFABRRRQAUUUUAFFFFABRRRQAUUUUAFFFFABRRRQAUUUUAFFFFABRRRQAUUUUAFFFFABRRRQAUUUUAFFFFABRRRQAUUUUAFFFFABRRRQAUUUUAFFFFABRRRQAUUUUAFFFFABRRRQAUUUUAFFFFABRRRQAUUUUAFFFFABRRRQAUUUUAFFFFABRRRQAUUUUAFFFFABRRRQAUUUUAFFFFABRRRQAUUUUAFFFFABRRRQAUUUUAFFFFABRRRQAUUUUAFFFFABRRRQAUUUUAFFFFABRRRQAUUUUAFFFFABRRRQAUUUUAFFFFABRRRQAUUUUAFFFFABRRRQAUUUUAFFFFABRRRQAUUUUAFFFFABRRRQAUUUUAFFFFABRRRQAUUUUAFFFFABRRRQAUUUUAeDft0/E3xB8H/wBlD4heKvC5lj1y1s44Le5h+/bedPHA06+6LKXB7FQegNfl/wD8Ey/2NPAn7UmreIvEvj3Wm1KPQbqNW8LQzmOW73qW8+dwd/lE5UBCCWVssAMN+0nirwvpfjbwzqvh/W7OPUNH1S1ksry1kztlhkUq6nHqCenNfjB+0R+wX8X/ANi7x0/xD+EV/q2reGbOVprXVdHJOoadH1Md1Eo+dMZBcAowB3hc4oA/ZXwP8P8Aw18NNAh0TwnoOneHNIh+5Z6ZbJBHnuxCgZY92PJ7mt+vyj/Z/wD+C0k9vHbaX8YfC5usYQ+IPDihXPbdLbMQCe5ZGHslfoZ8H/2nPhb8erZJPAvjbStcuGXe1gsvlXiDHJa3kCyAe5XHHWgD1CiiigAooooAKKKKACiiigAooooAKKKKACiiigAooooAKKKKACiiigAooooAKKKKACiiigAooooAKKKKACiiigAooooAKKKKACiiigAooooAKKKKACiiigAooooAKKKKACiiigAooooAKKKKACiiigAooooAKKKKACiiigAooooAKKKKACiiigAooooAKKKKACiiigAooooAKKKKACiiigAooooAKKKKACiiigAooooAKKKKACiiigAooooAKKKKACiiigAooooAKKKKACiiigAooooAKKKKACiiigAooooAKKKKACiiigAooooAKKKKACiiigAooooAKKKKACiiigAooooAKKKKACiiigAooooAKKKKACiiigAooooAKKKKACiiigAooooAKKKKACiiigAooooAKKKKACiiigD5w+PX/BPv4K/tCSXV9rXhddD8QXBLNrvh8izumY9WcAGOU+8iMeOtfAPxe/4I0/EfwVcNqvwv8VWXi6KBvNhtLpv7N1BCOVCOSYmI/vF4/pX7G0UAfhnof7ZH7Wf7G+qW+jeN49Xu9PjbYmn+ObOS4jlA/wCeV1kOwA4GyVlGOhxX3F+zx/wVw+FfxXmttJ8bQyfDTXZMKJb+UTabKx44uAB5fr+9VVH9419s+IPDuk+LNIuNK1zS7PWdLuF2zWOoW6TwSj0ZHBVh9RXwX+0p/wAEgvh/8QrW81b4XXH/AAgPiIqXXTpGaXS7h+uCpy8OT3QlR2SgD7/s7yDULWG6tZ47m2mQSRTQuHSRSMhlYcEEc5FTV+H37Mf7T3xN/wCCfnxu/wCFZfExbyPwat2lvqej3khmXT0cgi8tGBI24beQnyupPG7BH7fxyLIiujB0YZDKcgj1FADqKKKACiiigAooooAKKKKACiiigAooooAKKKKACiiigAooooAKKKKACiiigAooooAKKKKACiiigAooooAKKKKACiiigAooooAKKKKACiiigAooooAKKKKACiiigAooooAKKKKACiiigAooooAKKKKACiiigAooooAKKKKACiiigAooooAKKKKACiiigAooooAKKKKACiiigAooooAKKKKACiiigAooooAKKKKACiiigAooooAKKKKACiiigAooooAKKKKACiiigAooooAKKKKACiiigAooooAKKKKACiiigAooooAKKKKACiiigAooooAKKKKACiiigAooooAKKKKACiiigAooooAKKKKACiiigAooooAKKKKACiiigAooooAKKKKACiiigAooooAKKKKACiimySLGjO7BEUZLMcAD1NADqK+XPjR/wUo+A/wXa6tJ/Fg8V61BkHTPDCfbG3D+EzAiFSDwQZMj0r4Q+LH/AAWV+J3ja6fTPhp4V0/whFO3lQXFwp1PUGY8KUBAiBP90xv2GT3AP2B8QeI9J8J6TcarrmqWejaZbrumvdQuEghiHqzuQoH1NfD/AO0V/wAFdPhd8Mba6034fK3xH8RqCiy2+6HTIW9WmIzJjg4jBB5G9a+HNN/ZD/a4/bI1S31fxhFrSWjndHqHjm8e0ggDd47Yguqkc/u4sfnX2L8Af+CN/gDwPNa6p8S9auPHmpRkP/ZdsptNOVvRsHzJcHvuQHoVNAHxp8IPhR8Wf+CmH7RMfjPxdFI/hqO5iTV9ZEJgsrS0jO77HbDPLEEqFBZgX3ueSx/dhEWNVVVCqowFUYAHpVDw/wCHdK8J6LZ6Pomm2mj6TZxiK2sbGBYYYUH8KIoAUfQVo0AFFFFABRRRQAUUUUAFFFFABRRRQAUUUUAFFFFABRRRQAUUUUAFFFFABRRRQAUUUUAFFFFABRRRQAUUUUAFFFFABRRRQAUUUUAFFFFABRRRQAUUUUAFFFFABRRRQAUUUUAFFFFABRRRQAUUUUAFFFFABRRRQAUUUUAFFFFABRRRQAUUUUAFFFFABRRRQAUUUUAFFFFABRRRQAUUUUAFFFFABRRRQAUUUUAFFFFABRRRQAUUUUAFFFFABRRRQAUUUUAFFFFABRRRQAUUUUAFFFFABRRRQAUUUUAFFFFABRRRQAUUUUAFFFFABRRRQAUUUUAFFFFABRRRQAUUUUAFFFFABRRRQAUUUUAFFFFABRRRQAUUUUAFFFFABRRRQAUUUUAFFFFABRRRQAUUUUAFFFFAHNfEr4h6J8JvAOveMfEdw1romi2j3l1Ii7n2qPuqO7McKB3JAr8SPiv+0j8ev+CjHxIk8I+DdP1KLw7I5+z+FdIlKW0UOcCW9m+VX7ZaQhAeFAJ5/XT9sr4M3/7QH7NHjrwNpUvlavqFok1iC20SXEEqTxxkk4AdoghJ4G7Pavym/YB/bSt/2J/E3ibwH8RPC11aaVqOoqb+8ityuoaZcRgxsssZG6SMf3chlO8gMWxQB7r8B/8AgitbRx2+o/F3xe80vDHQ/DPyoO+JLmRcn0IRB04c9a/QD4Q/s0/DD4D2aQeBfBWlaDKq7Wvo4fNvJB6PcPukYexbHNdF8Ofip4Q+L3h2PXfBfiPTvEulPgfaNPnEmwkZ2uvVG/2WAI9K6qgAooooAKKKKACiiigAooooAKKKKACiiigAooooAKKKKACiiigAooooAKKKKACiiigAooooAKKKKACiiigAooooAKKKKACiiigAooooAKKKKACiiigAooooAKKKKACiiigAooooAKKKKACiiigAooooAKKKKACiiigAooooAKKKKACiiigAooooAKKKKACiiigAooooAKKKKACiiigAooooAKKKKACiiigAooooAKKKKACiiigAooooAKKKKACiiigAooooAKKKKACiiigAooooAKKKKACiiigAooooAKKKKACiiigAooooAKKKKACiiigAooooAKKKKACiiigAooooAKKKKACiiigAooooAKKKKACiiigAooooAKKKKACiiigAooooAKKKKACiiigAooooAKKKKACiiigAr5w/an/YN+Gf7Vdu17rVk+g+LlTbD4l0pVW4IAwqzKRtmQYHDfMAMKy819H0UAfh98QP+Cev7Sf7JviKXxP8OL2/8Q2luSY9Y8GTyRXvl9cS2oPmHOOVXzFx1NdT8JP+CxHxV+Hd4uj/ABP8NWfjGK3byp5vL/szUoyODu2r5ZI/u+WpPdq/ZivOviz+zt8NPjpZm38deC9J8RNt2LdXEAW6jHok6YkT/gLCgDxn4L/8FNPgP8ZDb2v/AAlB8G6xLgf2f4oQWnzegnyYTz0G8E+lfU8E8d1DHNDIs0Mih0kjYMrKRkEEdQRX5pfGz/gir4a1dLi9+FnjC68P3ZyyaT4gH2m1J7KsyASRr7sshr5St9a/aq/4Js63FHcrqNj4ZMu1be6J1DQLvnOFIO2Nm/2THJjrQB+71FfJP7Gf/BRLwX+1ds8P3dv/AMIl8QI4vMfR55Q8N4FGWe1k434A3FCAwGfvBS1fW1ABRRRQAUUUUAFFFFABRRRQAUUUUAFFFFABRRRQAUUUUAFFFFABRRRQAUUUUAFFFFABRRRQAUUUUAFFFFABRRRQAUUUUAFFFFABRRRQAUUUUAFFFFABRRRQAUUUUAFFFFABRRRQAUUUUAFFFFABRRRQAUUUUAFFFFABRRRQAUUUUAFFFFABRRRQAUUUUAFFFFABRRRQAUUUUAFFFFABRRRQAUUUUAFFFFABRRRQAUUUUAFFFFABRRRQAUUUUAFFFFABRRRQAUUUUAFFFFABRRRQAUUUUAFFFFABRRRQAUUUUAFFFFABRRRQAUUUUAFFFFABRRRQAUUUUAFFFFABRRRQAUUUUAFFFFABRRRQAUUUUAFFFFABRRRQAUUUUAFFFFABRRRQAUUUUAFFFFABRRRQAUUUUAFFFeb/ABY/aO+GPwOt3l8c+N9H8PSqu8WdxcB7t1xnKW6Zlf8A4Cp6igD0isnxXY6JqXhrU7XxLBYXOgSW7i+i1RUa1aHHzeaH+Xbjrnivzl+Nv/Bajwzo6z2Pws8IXPiG7GVXVvEBNrag9mWFCZJB7M0Zr5A1Dxh+1N/wUW1o6dAur69oXnANZ2EX2HQ7QjkeY3EZK8keYzv1xnpQByvx8i8GeC/2wo3/AGbdUnu7S31O1k0eS0YvFFqPmD91bOxJli8zaFY5ByQCy4Y/0LQ+Z5Kebt83aN+zO3djnGe1fD/7FP8AwTF8N/s46hY+M/Gd5D4u+IMA32/lKRYaY5BGYQwBkk5P7xwMcbVUjcfuOgAooooAKKKKACiiigAooooAKKKKACiiigAooooAKKKKACiiigAooooAKKKKACiiigAooooAKKKKACiiigAooooAKKKKACiiigAooooAKKKKACiiigAooooAKKKKACiiigAooooAKKKKACiiigAooooAKKKKACiiigAooooAKKKKACiiigAooooAKKKKACiiigAooooAKKKKACiiigAooooAKKKKACiiigAooooAKKKKACiiigAooooAKKKKACiiigAooooAKKKKACiiigAooooAKKKKACiiigAooooAKKKKACiiigAooooAKKKKACiiigAooooAKKKKACiiigAooooAKKKKACiiigAooooAKKKKACiiigAooooAKKKKACiiigAooooAKKKKACiiigAooooAK+P/ANrD/gph8OP2adSuvDdhDJ458b2+Um0rT5hHBZv/AHbicghW/wBhVZhj5gvGfR/26fib4g+D/wCyh8QvFXhcyx65a2ccFvcw/ftvOnjgadfdFlLg9ioPQGvy/wD+CZf7GngT9qTVvEXiXx7rTalHoN1GreFoZzHLd71LefO4O/yicqAhBLK2WAGGAMjxR+3Z+1N+1tr1x4f8DnUtPt5uP7H8C2To8aHgGS4G6VRjqxdV68AV3Pwh/wCCOHxQ8ezJq3xL8TWPguK4bzZraNv7S1FyTk7yrCNSf73mOc9RX68eB/h/4a+GmgQ6J4T0HTvDmkQ/cs9Mtkgjz3YhQMse7Hk9zW/QB8lfB/8A4Jd/AP4T+RcXHhmTxvqkeD9s8Uyi6TPf/RwFhIz/AHkY+/XP1Xpml2ei6fBY6daQWFjboI4ba1iWOONR0VVUAAewq1RQAUUUUAFFFFABRRRQAUUUUAFFFFABRRRQAUUUUAFFFFABRRRQAUUUUAFFFFABRRRQAUUUUAFFFFABRRRQAUUUUAFFFFABRRRQAUUUUAFFFFABRRRQAUUUUAFFFFABRRRQAUUUUAFFFFABRRRQAUUUUAFFFFABRRRQAUUUUAFFFFABRRRQAUUUUAFFFFABRRRQAUUUUAFFFFABRRRQAUUUUAFFFFABRRRQAUUUUAFFFFABRRRQAUUUUAFFFFABRRRQAUUUUAFFFFABRRRQAUUUUAFFFFABRRRQAUUUUAFFFFABRRRQAUUUUAFFFFABRRRQAUUUUAFFFFABRRRQAUUUUAFFFFABRRRQAUUUUAFFFFABRRRQAUUUUAFFFFABRRRQAUUUUAFFFFABRRRQAUUUUAFFFFAGV4q8L6X428M6r4f1uzj1DR9UtZLK8tZM7ZYZFKupx6gnpzX4wftEfsF/F/8AYu8dP8Q/hFf6tq3hmzlaa11XRyTqGnR9THdRKPnTGQXAKMAd4XOK/bSigD8o/wBn/wD4LST28dtpfxh8Lm6xhD4g8OKFc9t0tsxAJ7lkYeyV+hnwf/ac+Fvx6tkk8C+NtK1y4Zd7WCy+VeIMclreQLIB7lccda4D49f8E+/gr+0JJdX2teF10PxBcEs2u+HyLO6Zj1ZwAY5T7yIx4618A/F7/gjT8R/BVw2q/C/xVZeLooG82G0um/s3UEI5UI5JiYj+8Xj+lAH7G0V+Geh/tkftZ/sb6pb6N43j1e70+Ntiaf45s5LiOUD/AJ5XWQ7ADgbJWUY6HFfcX7PH/BXD4V/Fea20nxtDJ8NNdkwolv5RNpsrHji4AHl+v71VUf3jQB91UVDZ3kGoWsN1azx3NtMgkimhcOkikZDKw4II5yKmoAKKKKACiiigAooooAKKKKACiiigAooooAKKKKACiiigAooooAKKKKACiiigAooooAKKKKACiiigAooooAKKKKACiiigAooooAKKKKACiiigAooooAKKKKACiiigAooooAKKKKACiiigAooooAKKKKACiiigAooooAKKKKACiiigAooooAKKKKACiiigAooooAKKKKACiiigAooooAKKKKACiiigAooooAKKKKACiiigAooooAKKKKACiiigAooooAKKKKACiiigAooooAKKKKACiiigAooooAKKKKACiiigAooooAKKKKACiiigAooooAKKKKACiiigAooooAKKKKACiiigAooooAKKKKACiiigAooooAKKKKACiiigAooooAKKKKACiiigAooooAKKKKACiiigAooooAzvEHh3SfFmkXGla5pdnrOl3C7ZrHULdJ4JR6Mjgqw+or4L/aU/4JBfD/4hWt5q3wuuP+EB8RFS66dIzS6XcP1wVOXhye6EqOyV96eIPEek+E9JuNV1zVLPRtMt13TXuoXCQQxD1Z3IUD6mvh/9or/grp8LvhjbXWm/D5W+I/iNQUWW33Q6ZC3q0xGZMcHEYIPI3rQB8X/sx/tPfE3/AIJ+fG7/AIVl8TFvI/Bq3aW+p6PeSGZdPRyCLy0YEjbht5CfK6k8bsEft/HIsiK6MHRhkMpyCPUV+E/wg+FHxZ/4KYftEx+M/F0Uj+Go7mJNX1kQmCytLSM7vsdsM8sQSoUFmBfe55LH92ERY1VVUKqjAVRgAelADqKKKACiiigAooooAKKKKACiiigAooooAKKKKACiiigAooooAKKKKACiiigAooooAKKKKACiiigAooooAKKKKACiiigAooooAKKKKACiiigAooooAKKKKACiiigAooooAKKKKACiiigAooooAKKKKACiiigAooooAKKKKACiiigAooooAKKKKACiiigAooooAKKKKACiiigAooooAKKKKACiiigAooooAKKKKACiiigAooooAKKKKACiiigAooooAKKKKACiiigAooooAKKKKACiiigAooooAKKKKACiiigAooooAKKKKACiiigAooooAKKKKACiiigAooooAKKKKACiiigAooooAKKKKACiiigAooooAKKKKACiiigAooooAKKKKACiiigAooooAKKKKACmySLGjO7BEUZLMcAD1Nc58SviHonwm8A694x8R3DWuiaLaPeXUiLufao+6o7sxwoHckCvxI+K/wC0j8ev+CjHxIk8I+DdP1KLw7I5+z+FdIlKW0UOcCW9m+VX7ZaQhAeFAJ5AP05+NH/BSj4D/Bdrq0n8WDxXrUGQdM8MJ9sbcP4TMCIVIPBBkyPSvhD4sf8ABZX4neNrp9M+GnhXT/CEU7eVBcXCnU9QZjwpQECIE/3TG/YZPf0b4D/8EVraOO31H4u+L3ml4Y6H4Z+VB3xJcyLk+hCIOnDnrX6AfCH9mn4YfAezSDwL4K0rQZVXa19HD5t5IPR7h90jD2LY5oA/HfTf2Q/2uP2yNUt9X8YRa0lo53R6h45vHtIIA3eO2ILqpHP7uLH519i/AH/gjf4A8DzWuqfEvWrjx5qUZD/2XbKbTTlb0bB8yXB77kB6FTX6H0UAZ3h/w7pXhPRbPR9E0200fSbOMRW1jYwLDDCg/hRFACj6CtGiigAooooAKKKKACiiigAooooAKKKKACiiigAooooAKKKKACiiigAooooAKKKKACiiigAooooAKKKKACiiigAooooAKKKKACiiigAooooAKKKKACiiigAooooAKKKKACiiigAooooAKKKKACiiigAooooAKKKKACiiigAooooAKKKKACiiigAooooAKKKKACiiigAooooAKKKKACiiigAooooAKKKKACiiigAooooAKKKKACiiigAooooAKKKKACiiigAooooAKKKKACiiigAooooAKKKKACiiigAooooAKKKKACiiigAooooAKKKKACiiigAooooAKKKKACiiigAooooAKKKKACiiigAooooAKKKKACiiigAooooAKKKKACiiigAooooAKKKKACiiigAooooA8X/bK+DN/wDtAfs0eOvA2lS+Vq+oWiTWILbRJcQSpPHGSTgB2iCEngbs9q/Kb9gH9tK3/Yn8TeJvAfxE8LXVppWo6ipv7yK3K6hplxGDGyyxkbpIx/dyGU7yAxbFfuDXzh+1P+wb8M/2q7dr3WrJ9B8XKm2HxLpSqtwQBhVmUjbMgwOG+YAYVl5oA9l+HPxU8IfF7w7HrvgvxHp3iXSnwPtGnziTYSM7XXqjf7LAEeldVX4ffED/AIJ6/tJ/sm+IpfE/w4vb/wAQ2luSY9Y8GTyRXvl9cS2oPmHOOVXzFx1NdT8JP+CxHxV+Hd4uj/E/w1Z+MYrdvKnm8v8AszUoyODu2r5ZI/u+WpPdqAP2Yor5U+C//BTT4D/GQ29r/wAJQfBusS4H9n+KEFp83oJ8mE89BvBPpX1PBPHdQxzQyLNDIodJI2DKykZBBHUEUASUUUUAFFFFABRRRQAUUUUAFFFFABRRRQAUUUUAFFFFABRRRQAUUUUAFFFFABRRRQAUUUUAFFFFABRRRQAUUUUAFFFFABRRRQAUUUUAFFFFABRRRQAUUUUAFFFFABRRRQAUUUUAFFFFABRRRQAUUUUAFFFFABRRRQAUUUUAFFFFABRRRQAUUUUAFFFFABRRRQAUUUUAFFFFABRRRQAUUUUAFFFFABRRRQAUUUUAFFFFABRRRQAUUUUAFFFFABRRRQAUUUUAFFFFABRRRQAUUUUAFFFFABRRRQAUUUUAFFFFABRRRQAUUUUAFFFFABRRRQAUUUUAFFFFABRRRQAUUUUAFFFFABRRRQAUUUUAFFFFABRRRQAUUUUAFFFFABRRRQAUUUUAFFFFABRRRQAUUUUAFFFFABRRRQAV518Wf2dvhp8dLM2/jrwXpPiJtuxbq4gC3UY9EnTEif8AAWFei0UAfmd8bP8Agir4a1dLi9+FnjC68P3ZyyaT4gH2m1J7KsyASRr7sshr5St9a/aq/wCCbOtxR3K6jY+GTLtW3uidQ0C75zhSDtjZv9kxyY61+71ZPiux0TUvDWp2viWCwudAkt3F9Fqio1q0OPm80P8ALtx1zxQB8v8A7Gf/AAUS8F/tXbPD93b/APCJfECOLzH0eeUPDeBRlntZON+ANxQgMBn7wUtX1tX883x8i8GeC/2wo3/Zt1Se7tLfU7WTR5LRi8UWo+YP3Vs7EmWLzNoVjkHJALLhj/QtD5nkp5u3zdo37M7d2OcZ7UAPooooAKKKKACiiigAooooAKKKKACiiigAooooAKKKKACiiigAooooAKKKKACiiigAooooAKKKKACiiigAooooAKKKKACiiigAooooAKKKKACiiigAooooAKKKKACiiigAooooAKKKKACiiigAooooAKKKKACiiigAooooAKKKKACiiigAooooAKKKKACiiigAooooAKKKKACiiigAooooAKKKKACiiigAooooAKKKKACiiigAooooAKKKKACiiigAooooAKKKKACiiigAooooAKKKKACiiigAooooAKKKKACiiigAooooAKKKKACiiigAooooAKKKKACiiigAooooAKKKKACiiigAooooAKKKKACiiigAorg/jp8YdF+Afwn8SePNfy2n6NbGbyEYK9xKSFihUn+J3ZVHpuz0FeY/s6ft7fCD9pRbay0HxAuj+J5QM+Hdbxb3Zb0iySk3f/VsxxyQKAPoqiiigAooooAKKKKACiiigAooooAKKKKACiivj/8Aaw/4KYfDj9mnUrrw3YQyeOfG9vlJtK0+YRwWb/3bicghW/2FVmGPmC8ZAPsCvN/ix+0d8MfgdbvL458b6P4elVd4s7i4D3brjOUt0zK//AVPUV+O/ij9uz9qb9rbXrjw/wCBzqWn283H9j+BbJ0eNDwDJcDdKox1Yuq9eAK7n4Q/8EcPih49mTVviX4msfBcVw3mzW0bf2lqLknJ3lWEak/3vMc56igD2f42/wDBajwzo6z2Pws8IXPiG7GVXVvEBNrag9mWFCZJB7M0Zr5A1Dxh+1N/wUW1o6dAur69oXnANZ2EX2HQ7QjkeY3EZK8keYzv1xnpX6dfB/8A4Jd/AP4T+RcXHhmTxvqkeD9s8Uyi6TPf/RwFhIz/AHkY+/XP1Xpml2ei6fBY6daQWFjboI4ba1iWOONR0VVUAAewoA+Jv2Kf+CYvhv8AZx1Cx8Z+M7yHxd8QYBvt/KUiw0xyCMwhgDJJyf3jgY42qpG4/cdFFABRRRQAUUUUAFFFFABRRRQAUUUUAFFfPn7RH7dnwh/ZrjntvEfiJNT8RRggeHdF23N7ux0dQQsX/bRl9s16D8AfjVo37Qvwj8O+PtCVobLVoC72sjhntplYpLCxHdXVhnjIwe9AHoVFFFABRRRQAUUUUAFFFFABRRRQAUUUUAFFFFABRRRQAUUUUAFFFFABRRRQAUUUUAFFFFABRRRQAUUUUAFFFFABRRRQAUUUUAFFFFABRRRQAUUUUAFFFFABRRRQAUUUUAFFFFABRRRQAUUUUAFFFFABRRRQAUUUUAFFFFABRRRQAUUUUAFFFFABRRRQAUUUUAFFFFABRRRQAUUUUAFFFFABRRRQAUUUUAFFFFABRRRQAUUUUAFFFFABRRRQAUUUUAFFFFABRRRQAUUUUAFFFFABRRRQAUUUUAFFFFABRRRQAUUUUAFFFFABRRRQAUUUUAFFFFABRRRQAUUUUAfPH7b/AOyvf/tb/Ce38J6f4uk8LTWd4NQRWgEttdyKjKiTAEMFG4kFScE5KtgY/Ez4/fsb/Fn9ma8d/GHhqYaQjhYvEGmE3GnyHPBEoHyEnosgRvav6OqhvLO31G0mtbuCO6tZkMcsMyB0dSMFWU8EEdjQB+D37OX/AAVC+MHwJ+y6bq19/wALC8LQ4T+zddlY3ESDtFdYLrxgAPvUAcKK/Un9nL/gon8Hv2jPsunWetf8It4qmAX+wdfZYJXc/wAMMmfLm5zgKd+OSorzv9o7/gk38Kvi99r1XwYD8NfEsmX/AOJdEH02Vv8AbtsgJnpmIqBydrV+XP7RH7C/xd/ZpknufEvh19Q8OxthfEWj5ubIjsXYANF9JFX2zQB/RRRX4Bfs5/8ABSb4xfs+fZdOOrf8Jp4WhAT+xfEDtL5aDtDP/rI8DgDLIP7tfqV+zl/wUw+D3x/+y6bc6n/wgviqUBf7I1+RY45HP8MNxxHJzgAHY5zwtAH1nRSZzyORS0AFFFFABRRRQAUUUUAeDft0/E3xB8H/ANlD4heKvC5lj1y1s44Le5h+/bedPHA06+6LKXB7FQegNfl//wAEy/2NPAn7UmreIvEvj3Wm1KPQbqNW8LQzmOW73qW8+dwd/lE5UBCCWVssAMN+0nirwvpfjbwzqvh/W7OPUNH1S1ksry1kztlhkUq6nHqCenNfjJ+0F+wL8Y/2NfHknxC+D17q2seGrOUzWup6MxbUtOjJz5dzCozImMguqsjKDvCg4oA/ZHwP8P8Aw18NNAh0TwnoOneHNIh+5Z6ZbJBHnuxCgZY92PJ7mt+vyj/Z/wD+C0c9sltpXxi8LG524RvEHh1Qr+m6W1YgE9yyMPZK/RH4Q/tKfDH48WMdx4G8a6Vr0rLvaxjnEd5GP9u3fEi/UrjigD0uiiigAooooAKKKKACiiigAooooAKK+U/2jf8AgpP8Hv2fPtWnLq3/AAmviqHKf2LoDrKI3Haaf/Vx4PBGWcf3a/Lb9o3/AIKYfGH4/wD2rTbbU/8AhBfCspK/2RoEjRySIf4ZrjiSTjIIGxDnlaAP1e/aM/4KFfB79nH7VYalrn/CSeKIcr/wj+glbidH9JnyEhxxkM27ByFNflt+0Z/wVL+L/wAcPtWmaFef8K58LyEqLLQ5mF3KnpLdcOe+RGI1IOCDXmH7Pf7Efxc/aYnim8K+G5LXQXbD+IdXzbWCjOCVcgmUjuI1cjuBX6jfs5/8Ek/hb8J/s2q+OWb4leIkw3l30Xl6bC3+zb5Pmdx+9LA9dooA/Kn4C/sh/Fj9pzUN3g7w1cXOnNIRPr2okwWEZz8xaZh87DuqBm56V+1n7C/7JWpfshfDXUvDuo+MJPFE2p3a38lvFB5VpZy7AriHJLNuCplmxnYuFXnP0ZY2NtpdnBZ2dvFaWkCCOKCBAkcagYCqo4AA7Cp6ACiiigAooooAKKKKACiiigAooooAKKKKACiiigAooooAKKKKACiiigAooooAKKKKACiiigAooooAKKKKACiiigAooooAKKKKACiiigAooooAKKKKACiiigAooooAKKKKACiiigAooooAKKKKACiiigAooooAKKKKACiiigAooooAKKKKACiiigAooooAKKKKACiiigAooooAKKKKACiiigAooooAKKKKACiiigAooooAKKKKACiiigAooooAKKKKACiiigAooooAKKKKACiiigAooooAKKKKACiiigAooooAKKKKACiiigAooooAKKKKACiiigAooooAKKKKACiiigApksSTRvHIiyRuCrIwyGB6gj0p9FAHxn+0b/wSx+EXxv8AtWp+H7Y/DjxRLl/tmiwg2crnvLaZCfjGYyTySa/Lb9oz/gn38YP2b2ur7VdCPiHwvESR4g0INcW6r6yrjfD2yXULk4DGv6FaTrweRQB/Pd+zn/wUJ+MP7OP2ax03XD4k8LwgL/wj+vFriBEHaF874cc4CNtz1U1+pP7Of/BUv4QfHD7Lpmu3n/CufFEgCmy1yZRaSv6RXXCHtgSCNiTgA1p/tGf8Ey/g78fftWpWmm/8IH4pmJf+1tAjVI5XPea24jfnJJXY5PVq/LX9oz/gm78Yv2evtWonSP8AhMvC0RJ/trw+jTeWnrNDjzIuOpwUH940Afv9HIk0ayRsrowDKynIIPQg06v52v2d/wBuz4vfs1SQW3hzxE2p+HY+D4d1vdc2W30QEhov+2bL75r9R/2c/wDgrF8J/jD9l0vxg7fDXxJIApXVJQ+nSt/sXWAE9f3oQDoGY0Afb1FRWt1DfWsVzbTR3FvMgkjmiYMjqRkMCOCCO4qWgAooooAKKKKAPnb49fsC/Bf9oZ7m91/wtHpPiCfLNr2gkWd2zH+J8ApKfeRGNfn78YP+CNPxF8F3Lar8LfFVn4tihbzYbO8b+ztQQg5UI+TExH94tH9K/YuigD8M9D/bI/az/Y31S30bxvHq93p8bbE0/wAc2clxHKB/zyush2AHA2Ssox0OK+4v2eP+CuHwr+K81tpPjaGT4aa7JhRLfyibTZWPHFwAPL9f3qqo/vGvtnxB4d0nxZpFxpWuaXZ6zpdwu2ax1C3SeCUejI4KsPqK+C/2lP8AgkF8P/iFbXerfC64/wCEB8RYZ106Rmm0u4frgqcvBk90JUdkoA+/7O8g1C1hurWeO5tpkEkU0Lh0kUjIZWHBBHORU1fh9+zH+098Tf8Agn58bv8AhWfxNS+j8GrdLb6not45lWwVzxeWjZI287yE+WRc8bsEfuADkZHIoAWiio7i4is7eWeeVIIIlLySSMFVFAySSeAAO9AElNd1jVmZgqqMlmOAB618U/tG/wDBVv4TfBn7VpfhSU/EnxNHlRFpMoWwif8A6aXWCrf9sg/oSK/Lj9ov9vT4vftKNc2eveIG0fwzMcDw7om63tCvpJyXm/7aMwzyAKAP1d/aO/4KhfCD4E/a9M0i9/4WF4qhyv8AZ2hyqbaJ/SW65ReQQQm9geqivy2/aO/4KJfGH9o37Xp17rX/AAi3hSbK/wBgaCWgikQ/wzSZ8ybIxkMdmRkKKk/Zy/4Jz/GH9or7LqFto3/CJeFZgH/t7X1aGORD3hix5kuRnBACHuwr9Sf2c/8AgmD8H/gP9l1LU7D/AIWD4oiAY6lr0Stbxv6w2vKL2IL72BHDCgD8of2df2BfjB+0k1veaJoB0PwzLhv+Ei13dbWjL6xDBebv/q1IzwSK/Uj9nP8A4JUfCT4L/ZdT8TwH4k+JowGM+sQqLGJ/WO1yVP8A20L+oxX2mqhFCqAqgYAHQUtAEcEEdrDHDDGsUMahEjjUKqqBgAAdABUlFFABRRRQAUUUUAFFFFABRRRQAUUUUAFFFFABRRRQAUUUUAFFFFABRRRQAUUUUAFFFFABRRRQAUUUUAFFFFABRRRQAUUUUAFFFFABRRRQAUUUUAFFFFABRRRQAUUUUAFFFFABRRRQAUUUUAFFFFABRRRQAUUUUAFFFFABRRRQAUUUUAFFFFABRRRQAUUUUAFFFFABRRRQAUUUUAFFFFABRRRQAUUUUAFFFFABRRRQAUUUUAFFFFABRRRQAUUUUAFFFFABRRRQAUUUUAFFFFABRRRQAUUUUAFFFFABRRRQAUUUUAFFFFABRRRQAUUUUAFFFFABRRRQAUUUUAFFFFABRRRQAUUUUAFFFFABRRRQAUUUUAfL37Rv/BOj4O/tFfadQudF/wCET8Uykv8A294fVYJJHPeaLHly5PUkb/RhX5bftGf8EwPjD8CPtOpaXYf8LB8Lx5b+0tBiZriJB3mteXXjJJTeoHVhX71UUAfzkfs//tnfFr9ma8SPwl4lmOjq2ZPD+qA3Fg/OSPKJzGSerRlGPrX6h/s5f8Fdfhl8Ufs2k/EGBvhv4gcBftNw5m0yZvaYDMWeTiQBR/fNe0ftFfsDfCD9pRbi81zw+uieJZMkeIdC2212zHvKMFJu3+sUnHAIr8t/2jP+CU/xb+C/2nU/DEI+JPhqPLCfR4iL6JR/z0tclj/2zL++KAP3K03VLPWtPt7/AE+7gv7G4QSQ3NtIskUqHkMrKSCD6irVfzc/A39qz4r/ALMmrMPBviW8021SU/adDvgZrKRgfmDwPwrZyCy7X9xX6e/s5f8ABYXwB8QPs2k/E/T2+H+tMAv9pw7rjTJW9SQDJDk9mDKO7igD9CaKoaDr+meKNItdV0bUbTVtLuk8y3vbGdZoZVP8SOpIYe4NXZJFjRndgiKMlmOAB6mgB1FfLnxo/wCClHwH+C7XVpP4sHivWoMg6Z4YT7Y24fwmYEQqQeCDJkelfCHxY/4LK/E7xtdPpnw08K6f4QinbyoLi4U6nqDMeFKAgRAn+6Y37DJ7gH7A+IPEek+E9JuNV1zVLPRtMt13TXuoXCQQxD1Z3IUD6mvh/wDaK/4K6fC74Y211pvw+VviP4jUFFlt90OmQt6tMRmTHBxGCDyN618Oab+yH+1x+2Rqlvq/jCLWktHO6PUPHN49pBAG7x2xBdVI5/dxY/Ovrj4N/wDBIr4X/CPT/wDhKPjF4qXxR9hTz7iCSUadpFuB1Mrlt7qD3LIp6FTQB8ffCf4S/Fv/AIKbftB/8Jh4sWYeG1njj1bXI4fIs7K1QlvslqD1fBICgsQX3ueST+6d5e2eh6bLdXdxBYWFrGXknncRxRIo5LMcBQB3Nfnr8bP+Cr/wo+B+ir4R+DHh+28VTWMfkWzWcP2LRbPHQIFAaQA54RVU9nr80fjt+1t8WP2nNSC+MfEt1e2LyD7PoOngwWMbZ+ULAvDtnoz7m96AP1U/aM/4K4fC/wCFf2rSvAcbfEnxCgKiazk8rTIm9WuMEy44OIgVPTeK/Lv9oT9tf4t/tMXEsXizxJLBobtlPDuk7rbT05yMxgkyEHo0hcjsa9W/Zx/4JYfF343fZNU8QWw+HPheXD/bNaiJvJU9YrXIb6GQxgjkE1+pP7Of/BPv4P8A7N62t9pWhDxD4ohw3/CQ66FuLhX9Ylxsh5zgoobBwWNAH5Q/s4/8EyfjD8ffsmpXum/8IF4Umw39ra9GySyIe8NtxI/GCC2xCOj1+pP7OX/BN34Pfs8/ZdRXSP8AhMvFUOG/tvX0WUxv6ww48uLB6HBcf3zX1RRQAUUUUAFFFFABRRRQAUUUUAFFFFABXHfFvw1rHizwDqthoPi6+8D6t5fmwa1YxQyNCy84ZZUcFDj5gADjoRXY147+2F4//wCFY/su/E7xEJPKnt9DuILeTP3Z5l8iE/8AfyVKAPzV/Yn+MX7Tn7Y3xC1rw7H8ddQ8KWelaYdQm1L+w7S8BfzURItmI8Fgztnd/wAszxzX2VN+yn+0qsTmL9ry+eUKdqv4JtFBPYE+ecD3wa8X/wCCI/gD+zvhh8RPGkkWG1bVYNLiduuy2iMjY9i1zj6r7V90eJfj14K8J/Fvwt8Mr/VWHjXxJDLc6fpkMDyMYo1dmd2UbY1xHJgsRnY2OlAHw7/wTz+Lnx58f/tRfEXwh8TfG91rul+Cba5s7y1NtAsTXy3KwoQyRqduEmYc84FfpJXJ+EfhR4Q8B+IvEuveH9As9K1nxJOtzq97bqRJeyKXIZyTyQZHP/AjXWUAFFFFABRRRQAUUUUAFFFFABRRRQAUUUUAFFFFABRRRQAUUUUAFFFFABRRRQAUUUUAFFFFABRRRQAUUUUAFFFFABRRRQAUUUUAFFFFABRRRQAUUUUAFFFFABRRRQAUUUUAFFFFABRRRQAUUUUAFFFFABRRRQAUUUUAFFFFABRRRQAUUUUAFFFFABRRRQAUUUUAFFFFABRRRQAUUUUAFFFFABRRRQAUUUUAFFFFABRRRQAUUUUAFFFFABRRRQAUUUUAFFFFABRRRQAUUUUAFFFFABRRRQAUUUUAFFFFABRRRQAUUUUAFFFFABRRRQAUUUUAFFFFABRRRQAUUUUAFFFFABRRRQB4P+0L+xH8JP2loZZvFfhuO215lwniDScW1+pxgFnAxKB2EiuB2Ar8uf2jP+CSPxS+FH2nVfAzr8SvD0eX8uyj8rUoV9GtyT5nYfuizHk7BX7fUUAfzW/B79or4p/sw+JJ38H+ItS8N3Ec2290i4XdbSupwVmtpAV3cYyQGHYiu3/aG/bq+Lf7VE9ppfiHXINC0BgkJ0TR2e0sHY4Bkmy7M+Tz87FV7Ac5/bT4/fsgfCr9pazYeNvC8E+qhNkOuWP+j6hDxgYmUZcDssgZf9mvyj/a8/4Jb+JP2d9C1Dxh4d8Uab4i8F2uXk/tS4isL63HZcOwjmPYbCHY8COgD2D9l3/gkJ4b8a+H9N8V+O/iNaeI9NulEsVj4IuEltmHXDXhB3ehVEGMHD1+gXgf4J/Bb9lHwvPqei6B4d8DadZx/wCk65esiyhf+mt3MS5HsXxzxX8/Pwd/aA+IXwB13+1vAXim/wDD1wxBmhhcPb3GOglhYFJB/vKcdsU/4zftDfET9oHXBqnj3xVfa/KjFoLeVwltb57RQqAifUDJ7k0AfqX+0Z/wWO8GeDftOk/CbSW8baquU/tnUFe302JvVU4lmwf+uY6EMa/Mn4zftJ/FT9p7xBC3jHxHqGvu8oWz0e1UpaxMThVit4xt3dBnBY8ZJr6B/Y//AOCYXib9pPRLHxdrXijS/DngqZuG0+4jv76bHVQiMUhPY+Y25T1jNfrD+z/+xr8J/wBmm1jPg3wxD/bAXbJr2pYudQkyMH96R8gI6rGEU+lAH5Tfs5f8Emfir8Xvsmq+NAPhr4bkw5/tKIvqUq/7NtkbM8jMpUjrtav1H/Z3/YZ+EX7NMUFx4Z8OJqHiGMfN4i1nbc3xPcoxAWL6Rque+a9/ooAKKKKACiiigAooooAKKKKACiiigAooooAKKKKACvgn/gsr8QP+Ea/Zi0vw1FLtuPEuuQxPHn71vArTOfwkEH5197V+Qv8AwWI8RXXxF/aK+F/wx0tvOubayUpGva6vrgRqp99sER+j+9AHqv7H/wCxX8Uf+Gc/BeqaF+0D4i8A2OuWa6uNC07S4pIofP8AnVtzSAsWQoxyO+O1Yn7DfwD8X+H/APgoZ8U9Q8d6/feNNR8Iae1uniS/V915LceWIXy5bbiDzV2BiF6A4Ffpb4X8P2vhPw1pOh2C7LHTLSGygX0jjQIo/JRXh37Xv7Xunfsr6R4Xji0L/hL/ABX4l1FbDTPD8d8LR5V4Dyl/Lkwqs0a/dOTIPcgA+hKKam4qu4ANjkKcgH614h8bv2wvAXwR8S2PhO4/tTxb48vwDaeEfCtmb7UZARkFkBCxgjn52BI5AIBoA9xor5Y8Af8ABQDw54h+Nen/AAr8YeBfFvwy8XaoobTYfElrGkV0G3bAGRzgtsYA4KllK7sjFesfH79obwx+zv4XtdV1+LUNUv8AUJ/smlaDotv9p1DUp8ZMcMWRnA5JJAAx3IBAPT6K8F/ZR/bG8IftbaTr8ugWGp6Fq+gzpBqOkavGqzRb92xwVYgqSjr2IKEEDgniH/4KQfDnUv2jtK+D3hrTNY8VareaiNLl1jT1i+wwzDPmEMzhpFjAYsyjGFO3dQB9Y0V8af8ABRb9rSf4J/CHxb4c0nwt4ol1rVbMabF4iXSpU0i0+0IVZvthGwyhC21Fyd2M4wa8n/YP/aLX4Gfs1eDvCg+BHxo1y6n82/m1jRvCPnWF21xKzxyxTNMu6PymiAbABC56c0AfpHRRRQAUUUUAFFFFABRRRQAUUUUAFFFFABRRRQAUUUUAFFFFABRRRQAUUUUAFFFFABRRRQAUUUUAFFFFABRRRQAUUUUAFFFFABRRRQAUUUUAFFFFABRRRQAUUUUAFFFFABRRRQAUUUUAFFFFABRRRQAUUUUAFFFFABRRRQAUUUUAFFFFABRRRQAUUUUAFFFFABRRRQAUUUUAFFFFABRRRQAUUUUAFFFFABRRRQAUUUUAFFFFABRRRQAUUUUAFFFFABRRRQAUUUUAFFFFABRRRQAUUUUAFFFFABRRRQAUUUUAFFFFABRRRQAUUUUAFFFFABRRRQAUUVxvxR+MXgn4K+Hm1zxz4m07w1pozskvpgrykDJWKMZeRsfwoCfagDsq5n4hfE3wn8J/Ds2u+MfEOneG9Ji63Wo3CxKxxnaoPLseyqCT2FfmX+0Z/wAFnpZPtOkfBjw/5K8p/wAJJ4hiBb03Q2wOB6hpCfeMV+e2t+JPih+1F8QIjf3XiD4ieLLskQwKsl1KFzkrHGoIjQdcKAo9qAP0f/aM/wCCzthY/adI+DOgHUZuU/4STX42jhHbdDbAhm9QZCuCOUNfnJ43+JXxR/ag8cWz6/qmuePfEdy5S0so0aYqTyUgt4xtQf7KKBX25+zn/wAEa/FPij7Nq/xe1oeEtNbD/wBh6S6T6g49Hl5ii/DzD6gV+nHwV/Zv+G/7POjf2f4C8K2OiFkCT3qr5l3c45/eztl355wTgdgKAPyx/Zz/AOCOvjrx19m1b4p6mvgPRmw/9lWhS41OVfQ9Y4cjud7DoUFTftGf8Ec/G3gn7Tq3wp1VfHGkLl/7IvilvqUa+itxHNx6bCegU1+ydFAH8zvhHx98UP2X/Hk76LqOu+APE9o4S6tJEe3c45CTwSDa699rqR7V+i37OX/BZ23uPsuj/Gfw/wDZn4Q+JdAjLR/701qSSPUtGTnPEYr9BPjR+zr8Of2hNF/s3x74VsddVEKQXcibLq2z/wA8p1w6c84Bwe4NfmT+0Z/wRp8S+G/tWr/B/Wx4osFBf+wdYdIL5R/djmwI5f8AgXl/8CNAH6qfDf4qeEPjB4ci17wX4j0/xJpMnH2jT5g+xuu11+8jf7LAEeldVX8zWmaz8Tv2X/iE7Ws/iD4deLrMgSRMslpNtzwHRgA8Zx0YFWHqK/QT9nH/AILOXlp9k0b4z6B9uj4Q+JtBjCSj/amtuFb1LRlcAcIaAP1horifhT8a/A3xx8OrrfgXxPp/iTTyBvNpJ+8hJ6LLEcPG3+y6g121ABRRRQAUUUUAFFFFABRRRQAUUUUAFFFFAFLWn1GPR79tIitZ9WW3kNnFeytFA820+WsjqrMqFsZIViBkgHpX5h+MP+Cev7TnjT9pQfGu/wDEfwwm8Tw6nBqdraS3moPaQNBtEEYT7KCVQInfJIyeSa/UmigD49l0P9uuSN1XxD8EY2YEB1j1LK+4zCRn6ivHfCH/AAT8+PXjH9rDwh8WvjX438J+KLXR76O8kg025uS8aw7pLeKCFrWONUEuwkbhwWJ3Mef0kooA86/aI+LMPwL+CHjPx3LGszaJp0k8ET/dknOEhQ89GkZAfY1+aX/BP/47eF/hlpvi74keLfC/jv4hfFzxfeTTPdaH4dmvW+y7gfLjlO1MvIGZtpxgRr/Divv/APbf+FerfGr9lP4ieENCia41m8sY7i0t1+9PJbzx3CxL/tOYdo92FfIf7G//AAUR+FvwR/Z68O/Dr4grrnh3xp4Y8/T59LOkzSSTMJndQoUfKxDhSr7SGB7c0AdH4Z+DHxT/AGu/2wvCPxs8eeC5vhd4F8GpF/Y+kao4/tO9aKR5YzJGOUPmvubcFAVVVQx3NX3lf+C9B1TxTpXiW80ezufEGlRTQWOpSwq09tHKAJVR8ZUMFAOP6mvHP2ePi38UPjZ4o1jxLrHgdfAXwte2WPQ7PXFZdcvZQ+TcyRg7YoivGxgTkKQSDk+MfFv/AIKIatcfFbxl8EvhR4C1DxD8ULW8XS9M1AskmnoxUefcTjhkWFmIwQVO0lmUcEA+cPFfh3xL4f8A+Cm3xN+F3w78SWnhmL4oW6xahqUbZnsYpIY728eLafluCI7lVz/z3zwcMP03+GvwL8C/CXwp4c8P+G/Den2dl4fVv7Ple3R54pHTbLN5hG7zJBne+ctnB44r8zf2qPgPdfsN+LPgL8ZLV73xTqWn6tJJ4115svNqN5JIssjMx6eYjXMaZIACLnJJJ+/f2e/2lG/aS1rXNW8MeHbqD4Y2kEMWn+JNSV7ebUrwljMsMDLzCi7VMhI+cEANyVAPlD/gsdr934k0z4P/AAo0p9+o+Jtda58lT/EgW3hDD0Zrp8e6e1foX4U8OWng/wAL6PoNgu2x0uzhsbdT2jiQIo/JRX5jf8FIPEVx8J/28/gd8SPEunXd14D0m3spBNDFvUSw3s0k4XPBlVWicLnnC/h9e/BP9rW//aU+I1uPh34OvZPhVZ28v9p+Mddjez+0XOP3UNlGQTLg/fLYwD2IUOAfSNFfK/7fX7YWsfse+EfCusaP4esfEMusX0tpJHfTPGIwse/I29TX0t4Z1V9d8N6VqUkaxPeWkVw0anIUugYgfnQBpUUUUAFFFFABRRRQAUUUUAFFFFABRRRQAUUUUAFFFFABRRRQAUUUUAFFFFABRRRQAUUUUAFFFFABRRRQAUUUUAFFFFABRRRQAUUUUAFFFFABRRRQAUUUUAFFFFABRRRQAUUUUAFFFFABRRRQAUUUUAFFFFABRRRQAUUUUAFFFFABRRRQAUUUUAFFFFABRRRQAUUUUAFFFFABRRRQAUUUUAFFFFABRRRQAUUUUAFFFFABRRRQAUUUUAFFFFABRRRQAUUUUAFFFFABRRRQAUUUUAFFFFABRRRQAUUUUAFFFFABRRRQAUUUUAFFFeZ/Gz9pL4bfs8aP/aHj3xXZaIXUtBZFjLd3H/XOBAXYZ43Y2jPJFAHplcD8X/j18P8A4C6D/a/j3xTYeHbVgTFHcOWnuCOoihUF5D7KpxX5cftGf8FlPFfir7VpHwi0UeENNYlBrmqqlxqEi+qRcxQ/j5h7giviDQfC/wAT/wBqD4gTLp1pr/xD8WXh3zzsz3UoGeGklY4jQdMsQooA+9f2jP8Ags1rOr/adI+Deg/2Ha8p/wAJFrkay3TD+9Fb5KJ7Fy+QeVU18Ehfif8AtQ/ELA/4SD4jeL7zn/lpdzBc/iI4xn2VR6Cv0M/Zz/4IwySfZdX+M3iDylwH/wCEb8PyAt67ZrkjHsVjB9nr9KPhf8HfBPwV8Opofgfwzp3hrTVA3R2MIV5SOjSyHLyN/tOSfegD8wv2c/8AgjJq+rfZtX+Muvf2JbHD/wDCO6DIst0f9ma4IKJ7iMPkHhlNfpj8IfgP4A+A2gjSPAfhbT/DtqVAlkto8z3GOhlmbMkh93Y13tFABRRRQAUUUUAFFFFAHC/Fr4G+A/jr4fOjeO/C+n+I7LBEbXUeJoCerRSrh4z7owNfmj+0Z/wRj1LTvtWr/BrX/wC1YAC48N69Isc/+7DcgBG9hIEwBy5NfrRRQB/MzdWPxO/Zf+IiiaPxB8OvGFlyrAyWk+3PVWGA8bY6jKsPUV93/s4/8FmNf0H7Jo/xi0MeIrIYQ+ItFjSG8Uf3pYOI5PcoY+OzGv1J+Jnwj8GfGXw7JoXjbw1p/iXS2ziG+hDGMnq0b/ejb/aQg+9fm3+0b/wRiVvtWsfBjxBtPLjw1r8nH+7DdAfgFkH1koA/Q74N/tB/Dz9oDQxqvgPxVYa/EqhpreJ9lzb57Swth4/+BAA9s16JX8znifwZ8T/2XviBDHq1jr3w98V2bF7a5jd7aQ44LwzIcSL23IxU9M19rfs5f8FkPGPg/wCy6R8WtIXxppK4Q61pqpBqUa+rpxFNgf8AXM9yxNAH7G0V5b8D/wBp34aftF6T9t8CeKrPVplQPPprN5V7bD/ppA2HAzxuwVPYmvUqACiiigAooooAKKKKACiiigAooooAKKKKACqk2k2VxeJdy2dvJdJjZO8Sl1x0w2MirdFABVeGwtbe4luIraGOeb/WSogDP9T1P41YooAiurWG+gaC4hjuIW+9HKoZTznkGnQwpbxJFEixxIoVUQYCgcAAdhT6KAILyxttRh8m7t4rqLOfLmQOufXBqSGFLeJIokWOJFCqiDAUDgADsKfRQAUUUUAFFFFABRRRQAUUUUAFFFFABRRRQAUUUUAFFFFABRRRQAUUUUAFFFFABRRRQAUUUUAFFFFABRRRQAUUUUAFFFFABRRRQAUUUUAFFFFABRRRQAUUUUAFFFFABRRRQAUUUUAFFFFABRRRQAUUUUAFFFFABRRRQAUUUUAFFFFABRRRQAUUUUAFFFFABRRRQAUUUUAFFFFABRRRQAUUUUAFFFFABRRRQAUUUUAFFFFABRRRQAUUUUAFFFFABRRRQAUUUUAFFFFABRRRQAUUUUAFFFFABRRRQAUUUUAFFFFABRRRQAUUV4l+0D+2V8J/2abSQeMfE8P9sBd0egabi51CTIyP3QPyA9mkKKfWgD22vI/jv+1b8L/2b9NNx458U2thesu6HSbc+ffT+myBctg/3mwvqRX5VftG/wDBXj4lfE77VpPw7tl+HOgPlBdxOJtUlX1MuNsWeuIxuH9818sfC74H/FL9p/xbcp4U0LVvF+qTS773VJnJiRzyWnuZDtUnr8zZPbNAH17+0Z/wWI8d+PPtWk/C3TV8BaKxKDVLrZcanKvqOscOR2UOw6hxXx14H+GfxQ/ag8c3Mfh/Stb8eeI7p/MvL2R2mIJ/jnuJDtQf7TsB2r9Mv2c/+CM/hzw/9l1f4w62fE16AHPh/R3eCyQ/3ZJ+JJf+AiPnuwr9EvBfgfw98OfD1toXhbRLDw/o1sMRWOm26wxL6naoGSe5PJ6k0Afmx+zn/wAEY9Psfsur/GbX/wC05sBz4b0GRo4R/szXPDN7iMLgjhyK/R34e/DPwp8J/DsOg+DvD2n+G9Ii6WunQLErH+8xHLse7MST3NdNRQAUUUUAFFFFABRRRQAUUUUAFFFFABRRRQAUUUUAc54++HPhf4p+HJ9B8X6Bp/iPR5vv2eowLKmezLkfKw7MMEdjX5y/tG/8EZNJ1T7XrHwa146PccuPDeuyNLbn/ZiueXT2EgfJPLgV+ntFAH80PxC+E3xR/Zf8bW8XiTR9a8D69bSF7PUIXaIMR/Hb3MZ2v/vIxr68/Zz/AOCwfxB+Hv2XSfibYL8QNEQBP7RjK2+qRL6lsbJsDswVj1L1+xHjDwVoHxC8P3Oh+JtFsdf0e5GJrHUbdZ4n9DtYEZHY9R2r88/2jf8AgjX4X8UfatX+EOtHwnqTZcaDqzvPYOfSOXmWL8fMHYbRQB9ifAT9rj4WftJ2KyeCPFFvdakI/Mm0W7/cX8A77oW5IHdk3L/tV7FX81Pxa+APxS/Zj8UQR+LvD+qeF72GbdZ6rAT5EjDkNBcxnaTxnAbcO4Br6e/Zz/4K5fE/4WfZdK8fQr8SfD8YCefdSeTqcS+onwRL3P7wFj/fFAH7cUV4Z+z3+2p8Jv2mLeKPwj4ljj1wpuk8P6oBbX8fGTiMnEgHdoy6jua9zoAKKKKACiiigAooooAKKKKACiiigAooooAKKKKACiiigAooooAKKKKACiiigAooooAKKKKACiiigAooooAKKKKACiiigAooooAKKKKACiiigAooooAKKKKACiiigAooooAKKKKACiiigAooooAKKKKACiiigAooooAKKKKACiiigAooooAKKKKACiiigAooooAKKKKACiiigAooooAKKKKACiiigAooooAKKKKACiiigAooooAKKKKACiiigAooooAKKKKACiiigAooooAKKKKACiiigAooooAKKKKACiiigAooooAKKKKACiiigAooooAKKKKACiiigAooooAKKKKACvAP2iP25vhF+zTHcW/ibxEmoeIYx8vh3RttzfE9g6ghYvrIy+2a4T/gqAPiRYfsw6jrnw68R6joR0m4WbWotLcRzXFgwKORIBvXYxRjtYApvzkCvx4+A/7JPxY/ac1Td4O8NXV5YPIRca/qBMFjG2fmLTtw7A9VTc/tQB73+0d/wVl+Kvxe+16V4M2/Dbw1JlB/Z0pfUpV/27nA2Z4OIgpHTc1fO/wZ/Zr+Kn7T3iCZfB/hzUNeaSYm81m6JS1icnLNLcP8u7nOMlj2Br9S/wBnP/gj/wDDz4d/ZdW+Jd83xB11QGOnqGg0uJvTYDvmwe7kKe6V966LoeneG9JtdL0jT7XStMtUEdvZ2UKwwwoOioigBR7AUAfnp+zn/wAEcfBngz7Lq/xY1ZvG2rKAx0awZ7fTYm9GfiSbH/AB1BU1+gvhnwto3gvQ7XRvD+k2WiaRarsgsdPt0ghiX0VFAA/KtSigAooooAKKKKACiiigAooooAKKKKACiiigAooooAKKKKACiiigAooooAKKKKAM3xF4a0jxhot1pGu6XZ61pN0uyex1C3SeCVfRkYEEfUV8AftGf8EdfA3jr7Vq/wAK9UbwJrLkv/ZN4WuNMkb0U8yQ5PcF1HQIK/RGigD+bT43fsvfFX9mTW0Xxl4avtHiSYfZdatCZbOVgcqY7hPlDcZCkhx3Ar339nP/AIKvfFn4OfZtL8WyD4leG48J5eqzFNQiUf3LrBLf9tQ/oCK/cLVtHsNf02407VLK31LT7lDHPaXcSyxSqeqsjAhh7EV8IftGf8EhPhv8SvtWrfDm7b4da85L/Y0Uz6XK3p5Wd0OfVDtH9w0Ae6/s6/t4/CH9pRYLTw/4hXSfEkgAPh7W9tteFj2jBJWb/tmzH1Ar6Gr+cL4+/se/Fj9mW+ZvGPhqeLSlk2w6/ppNxYSnPykTKPkJPRZAjcdK/XT/AIJX/wDCydU/Zrh8Q/EHxRqWv22rXTHQrbVH82W2s4sx7vMYeYQ7hsKxICohXAY0AfZNFFFABRRRQAUUUUAFFFFABRRRQAUUUUAFFFFABRRRQAUUUUAFFFFABRRRQAUUUUAFFFFABRRRQAUUUUAFFFFABRRRQAUUUUAFFFFABRRRQAUUUUAFFFFABRRRQAUUUUAFFFFABRRRQAUUUUAFFFFABRRRQAUUUUAFFFFABRRRQAUUUUAFFFFABRRRQAUUUUAFFFFABRRRQAUUUUAFFFFABRRRQAUUUUAFFFFABRRRQAUUUUAFFFFABRRRQAUUUUAFFFFABRRRQAUUUUAFFFFABRRRQAUUUUAFFFFABRRRQAUUUUAFFFFABRRRQAUUUUAFFFFABRRRQAUUUUAVtS0201nTrrT9QtYb6wuomguLW5jEkU0bAqyOpBDKQSCDwQaXT9PtdJsYLKxtobKzt0EcNvbxiOONAMBVUDAAHYVYooAKKKKACiiigAooooAKKKKACiiigAooooAKKKKACiiigAooooAKKKKACiiigAooooAKKKKACiiigAooooAgvbK31KzmtbuCK6tZkMcsMyB0dSMFWU8EH0NR6TpNjoOl2mm6ZZW+nadZxLBbWdpEsUMMagBURFACqAAAAMACrdFABRRRQAUUUUAFFFFABRRRQAUUUUAFFFFABRRRQAUUUUAFFFFABRRRQAUUUUAFFFFABRRRQAUUUUAFFFFABRRRQAUUUUAFFFFABRRRQAUUUUAFFFFABRRRQAUUUUAFFFFABRRRQAUUUUAFFFFABRRRQAUUUUAFFFFABRRRQAUUUUAFFFFABRRRQAUUUUAFFFFABRRRQAUUUUAFFFFABRRRQAUUUUAFFFFABRRRQAUUUUAFFFFABRRRQAUUUUAFFFFABRRRQAUUUUAFFFFABRRRQAUUUUAFFFFABRRRQAUUUUAFFFFABRRRQAUUUUAFFFFABRRRQAUUUUAFFFFABRRRQAUUUUAFFFFABRRRQAUUUUAFFFFABRRRQAUUUUAFFFFABRRRQAUUUUAFFFFABRRRQAUUUUAFFFFABRRRQAUUUUAFFFFABRRRQAUUUUAFFFFABRRRQAUUUUAFFFFABRRRQAUUUUAFFFFABRRRQAUUUUAFFFFABRRRQAUUUUAFFFFABRRRQAUUUUAFFFFABRRRQAUUUUAFFFFABRRRQAUUUUAFFFFABRRRQAUUUUAFFFFABRRRQAUUUUAFFFFABRRRQB//2Q==;" parent="1" vertex="1">
          <mxGeometry x="60" y="70" width="590" height="331.88" as="geometry" />
        </mxCell>
        <mxCell id="0T6q6VEXOdXNynGkeX3k-2" value="" style="endArrow=classic;html=1;rounded=0;entryX=0.5;entryY=0;entryDx=0;entryDy=0;" parent="1" edge="1" target="UwqTTRp8pMkoXefU89mr-15">
          <mxGeometry width="50" height="50" relative="1" as="geometry">
            <mxPoint x="240.0029430402029" y="110.00000000000011" as="sourcePoint" />
            <mxPoint x="240" y="520" as="targetPoint" />
          </mxGeometry>
        </mxCell>
        <mxCell id="0T6q6VEXOdXNynGkeX3k-3" value="create_axions_primakoff" style="rounded=0;whiteSpace=wrap;html=1;" parent="1" vertex="1">
          <mxGeometry x="120" y="-30" width="140" height="60" as="geometry" />
        </mxCell>
        <mxCell id="0T6q6VEXOdXNynGkeX3k-4" value="" style="endArrow=classic;html=1;rounded=0;exitX=0.5;exitY=1;exitDx=0;exitDy=0;" parent="1" edge="1" source="UwqTTRp8pMkoXefU89mr-15">
          <mxGeometry width="50" height="50" relative="1" as="geometry">
            <mxPoint x="240" y="580" as="sourcePoint" />
            <mxPoint x="240" y="610" as="targetPoint" />
          </mxGeometry>
        </mxCell>
        <mxCell id="0T6q6VEXOdXNynGkeX3k-5" value="Thread Management" style="rounded=1;whiteSpace=wrap;html=1;" parent="1" vertex="1">
          <mxGeometry x="190" y="680" width="100" height="30" as="geometry" />
        </mxCell>
        <mxCell id="0T6q6VEXOdXNynGkeX3k-6" value="Particle Creation Processes" style="rounded=1;whiteSpace=wrap;html=1;" parent="1" vertex="1">
          <mxGeometry x="190" y="750" width="100" height="30" as="geometry" />
        </mxCell>
        <mxCell id="0T6q6VEXOdXNynGkeX3k-9" value="Energy Recalculation Flag" style="rounded=1;whiteSpace=wrap;html=1;" parent="1" vertex="1">
          <mxGeometry x="182.5" y="610" width="115" height="30" as="geometry" />
        </mxCell>
        <mxCell id="0T6q6VEXOdXNynGkeX3k-10" value="" style="endArrow=classic;html=1;rounded=0;exitX=0.5;exitY=1;exitDx=0;exitDy=0;entryX=0.5;entryY=0;entryDx=0;entryDy=0;" parent="1" source="0T6q6VEXOdXNynGkeX3k-9" target="0T6q6VEXOdXNynGkeX3k-5" edge="1">
          <mxGeometry width="50" height="50" relative="1" as="geometry">
            <mxPoint x="250" y="590" as="sourcePoint" />
            <mxPoint x="250" y="620" as="targetPoint" />
          </mxGeometry>
        </mxCell>
        <mxCell id="0T6q6VEXOdXNynGkeX3k-11" value="" style="endArrow=classic;html=1;rounded=0;exitX=0.5;exitY=1;exitDx=0;exitDy=0;entryX=0.5;entryY=0;entryDx=0;entryDy=0;" parent="1" source="0T6q6VEXOdXNynGkeX3k-5" target="0T6q6VEXOdXNynGkeX3k-6" edge="1">
          <mxGeometry width="50" height="50" relative="1" as="geometry">
            <mxPoint x="250" y="650" as="sourcePoint" />
            <mxPoint x="250" y="690" as="targetPoint" />
          </mxGeometry>
        </mxCell>
        <mxCell id="UwqTTRp8pMkoXefU89mr-1" value="" style="strokeWidth=2;html=1;shape=mxgraph.flowchart.annotation_2;align=left;labelPosition=right;pointerEvents=1;" vertex="1" parent="1">
          <mxGeometry x="290" y="730" width="40" height="70" as="geometry" />
        </mxCell>
        <mxCell id="UwqTTRp8pMkoXefU89mr-2" value="" style="endArrow=none;html=1;rounded=0;exitX=0;exitY=0.5;exitDx=0;exitDy=0;exitPerimeter=0;entryX=1;entryY=0.5;entryDx=0;entryDy=0;entryPerimeter=0;" edge="1" parent="1" source="UwqTTRp8pMkoXefU89mr-1" target="UwqTTRp8pMkoXefU89mr-1">
          <mxGeometry width="50" height="50" relative="1" as="geometry">
            <mxPoint x="360" y="680" as="sourcePoint" />
            <mxPoint x="410" y="630" as="targetPoint" />
          </mxGeometry>
        </mxCell>
        <mxCell id="UwqTTRp8pMkoXefU89mr-3" value="Primakoff" style="text;html=1;align=center;verticalAlign=middle;resizable=0;points=[];autosize=1;strokeColor=none;fillColor=none;" vertex="1" parent="1">
          <mxGeometry x="322" y="713" width="70" height="30" as="geometry" />
        </mxCell>
        <mxCell id="UwqTTRp8pMkoXefU89mr-4" value="Pair Production" style="text;html=1;align=center;verticalAlign=middle;resizable=0;points=[];autosize=1;strokeColor=none;fillColor=none;" vertex="1" parent="1">
          <mxGeometry x="317" y="748" width="110" height="30" as="geometry" />
        </mxCell>
        <mxCell id="UwqTTRp8pMkoXefU89mr-5" value="Bethe-Heitler" style="text;html=1;align=center;verticalAlign=middle;resizable=0;points=[];autosize=1;strokeColor=none;fillColor=none;" vertex="1" parent="1">
          <mxGeometry x="322" y="783" width="90" height="30" as="geometry" />
        </mxCell>
        <mxCell id="UwqTTRp8pMkoXefU89mr-6" value="" style="endArrow=classic;html=1;rounded=0;exitX=0.75;exitY=1;exitDx=0;exitDy=0;entryX=0;entryY=0.5;entryDx=0;entryDy=0;" edge="1" parent="1" source="0T6q6VEXOdXNynGkeX3k-6" target="UwqTTRp8pMkoXefU89mr-10">
          <mxGeometry width="50" height="50" relative="1" as="geometry">
            <mxPoint x="410" y="680" as="sourcePoint" />
            <mxPoint x="320" y="920" as="targetPoint" />
            <Array as="points">
              <mxPoint x="265" y="920" />
            </Array>
          </mxGeometry>
        </mxCell>
        <mxCell id="UwqTTRp8pMkoXefU89mr-7" value="" style="endArrow=classic;html=1;rounded=0;exitX=0.25;exitY=1;exitDx=0;exitDy=0;entryX=1;entryY=0.5;entryDx=0;entryDy=0;" edge="1" parent="1" source="0T6q6VEXOdXNynGkeX3k-6" target="UwqTTRp8pMkoXefU89mr-11">
          <mxGeometry width="50" height="50" relative="1" as="geometry">
            <mxPoint x="410" y="680" as="sourcePoint" />
            <mxPoint x="160" y="921.0526315789474" as="targetPoint" />
            <Array as="points">
              <mxPoint x="215" y="921" />
            </Array>
          </mxGeometry>
        </mxCell>
        <mxCell id="UwqTTRp8pMkoXefU89mr-8" value="Photon wasn&#39;t converted" style="text;html=1;align=center;verticalAlign=middle;resizable=0;points=[];autosize=1;strokeColor=none;fillColor=none;" vertex="1" parent="1">
          <mxGeometry x="262" y="840" width="150" height="30" as="geometry" />
        </mxCell>
        <mxCell id="UwqTTRp8pMkoXefU89mr-9" value="Photon was converted" style="text;html=1;align=center;verticalAlign=middle;resizable=0;points=[];autosize=1;strokeColor=none;fillColor=none;" vertex="1" parent="1">
          <mxGeometry x="80" y="840" width="140" height="30" as="geometry" />
        </mxCell>
        <mxCell id="UwqTTRp8pMkoXefU89mr-10" value="Photon is advanced" style="rounded=1;whiteSpace=wrap;html=1;" vertex="1" parent="1">
          <mxGeometry x="325" y="906" width="100" height="30" as="geometry" />
        </mxCell>
        <mxCell id="UwqTTRp8pMkoXefU89mr-11" value="Photon number is reduced" style="rounded=1;whiteSpace=wrap;html=1;" vertex="1" parent="1">
          <mxGeometry x="50" y="906" width="100" height="30" as="geometry" />
        </mxCell>
        <mxCell id="UwqTTRp8pMkoXefU89mr-14" value="" style="endArrow=classic;html=1;rounded=0;exitX=0.001;exitY=0.647;exitDx=0;exitDy=0;exitPerimeter=0;entryX=0;entryY=0.5;entryDx=0;entryDy=0;" edge="1" parent="1" source="UwqTTRp8pMkoXefU89mr-9" target="0T6q6VEXOdXNynGkeX3k-3">
          <mxGeometry width="50" height="50" relative="1" as="geometry">
            <mxPoint x="500" y="700" as="sourcePoint" />
            <mxPoint x="100" y="20" as="targetPoint" />
            <Array as="points">
              <mxPoint x="-10" y="860" />
              <mxPoint x="-10" />
            </Array>
          </mxGeometry>
        </mxCell>
        <mxCell id="UwqTTRp8pMkoXefU89mr-15" value="advance_photons" style="rounded=0;whiteSpace=wrap;html=1;" vertex="1" parent="1">
          <mxGeometry x="180" y="510" width="120" height="60" as="geometry" />
        </mxCell>
      </root>
    </mxGraphModel>
  </diagram>
</mxfile>
